<svg width="565" height="27" viewBox="0 0 565 27" fill="none" xmlns="http://www.w3.org/2000/svg">
<path d="M560.982 15.0938H559.971C559.971 13.9909 559.807 12.5736 559.479 10.8418C559.15 9.10091 558.822 7.49674 558.494 6.0293C558.175 4.55273 558.016 3.58659 558.016 3.13086C558.016 2.50195 558.234 1.97331 558.672 1.54492C559.109 1.11654 559.711 0.902344 560.477 0.902344C561.242 0.902344 561.844 1.11654 562.281 1.54492C562.719 1.97331 562.938 2.50195 562.938 3.13086C562.938 3.58659 562.773 4.55273 562.445 6.0293C562.126 7.49674 561.803 9.10091 561.475 10.8418C561.146 12.5736 560.982 13.9909 560.982 15.0938ZM558.521 19.1816C558.521 18.6439 558.713 18.1836 559.096 17.8008C559.479 17.418 559.939 17.2266 560.477 17.2266C561.023 17.2266 561.493 17.418 561.885 17.8008C562.277 18.1836 562.473 18.6439 562.473 19.1816C562.473 19.7285 562.277 20.1934 561.885 20.5762C561.493 20.9499 561.023 21.1367 560.477 21.1367C559.939 21.1367 559.479 20.9499 559.096 20.5762C558.713 20.1934 558.521 19.7285 558.521 19.1816Z" fill="black"/>
<path d="M551.986 8.28516H554.516V21H551.426V11.1152L545.656 21H543.141V8.28516H546.217V18.1699L551.986 8.28516Z" fill="black"/>
<path d="M536.291 8.28516H539.518V21H536.428V10.7188L532.176 21.4238H531.615L527.363 10.7188V21H526.352V8.28516H529.715L533.023 16.543L536.291 8.28516Z" fill="black"/>
<path d="M512.27 17.4727C512.27 16.3151 512.675 15.3581 513.486 14.6016C514.307 13.8451 515.378 13.4668 516.699 13.4668C517.337 13.4668 517.93 13.5625 518.477 13.7539C519.023 13.9453 519.456 14.2142 519.775 14.5605V12.0723C519.775 11.4434 519.689 10.8919 519.516 10.418C519.342 9.9349 519.11 9.56576 518.818 9.31055C518.536 9.05534 518.203 8.89583 517.82 8.83203C517.438 8.75911 517.041 8.79102 516.631 8.92773C516.23 9.06445 515.815 9.3151 515.387 9.67969C514.967 10.0443 514.585 10.5046 514.238 11.0605H513.227V9.26953C513.664 8.95052 514.206 8.67708 514.854 8.44922C515.501 8.21224 516.18 8.04362 516.891 7.94336C517.611 7.8431 518.326 7.8431 519.037 7.94336C519.748 8.04362 520.386 8.23958 520.951 8.53125C521.516 8.8138 521.977 9.26042 522.332 9.87109C522.688 10.4727 522.865 11.1973 522.865 12.0449V21H519.775V19.5508C519.42 20.0885 518.919 20.5352 518.271 20.8906C517.633 21.2461 516.932 21.4238 516.166 21.4238C515.027 21.4238 514.092 21.041 513.363 20.2754C512.634 19.5098 512.27 18.5755 512.27 17.4727ZM515.359 17.5C515.359 19.2956 515.947 20.1934 517.123 20.1934C517.779 20.1934 518.385 19.9518 518.941 19.4688C519.497 18.9857 519.775 18.4342 519.775 17.8145V16.3789C519.775 15.7682 519.529 15.2988 519.037 14.9707C518.554 14.6426 518.025 14.4785 517.451 14.4785C516.749 14.4785 516.225 14.7428 515.879 15.2715C515.533 15.791 515.359 16.5339 515.359 17.5Z" fill="black"/>
<path d="M501.592 14.7246V21H498.516V8.28516H501.592V13.7266H506.527V8.28516H509.604V21H506.527V14.7246H501.592Z" fill="black"/>
<path d="M484.42 8.90039C482.624 8.90039 481.727 10.7962 481.727 14.5879C481.727 15.0801 481.736 15.5312 481.754 15.9414C481.781 16.3516 481.827 16.7891 481.891 17.2539C481.954 17.7188 482.05 18.1289 482.178 18.4844C482.314 18.8398 482.479 19.168 482.67 19.4688C482.87 19.7604 483.121 19.9883 483.422 20.1523C483.732 20.3073 484.083 20.3848 484.475 20.3848C485.896 20.3848 487.118 19.528 488.139 17.8145L489.014 18.2793C487.811 20.3757 486.298 21.4238 484.475 21.4238C483.426 21.4238 482.51 21.2552 481.727 20.918C480.943 20.5807 480.314 20.1068 479.84 19.4961C479.375 18.8763 479.029 18.1745 478.801 17.3906C478.573 16.5977 478.459 15.7181 478.459 14.752C478.459 12.61 479.024 10.9284 480.154 9.70703C481.285 8.47656 482.725 7.86133 484.475 7.86133C485.814 7.86133 487.141 8.2168 488.453 8.92773V11.1426H487.441C486.931 9.64779 485.924 8.90039 484.42 8.90039Z" fill="black"/>
<path d="M469.162 18.2793C468.597 19.2546 467.886 20.0247 467.029 20.5898C466.173 21.1458 465.215 21.4238 464.158 21.4238C462.29 21.4238 460.827 20.7858 459.77 19.5098C458.721 18.2246 458.197 16.584 458.197 14.5879C458.197 12.6191 458.735 11.0059 459.811 9.74805C460.895 8.49023 462.344 7.86133 464.158 7.86133C465.817 7.86133 467.143 8.38542 468.137 9.43359C469.139 10.4727 469.641 11.8262 469.641 13.4941C469.641 13.8587 469.622 14.2233 469.586 14.5879H461.465C461.465 15.0892 461.474 15.5221 461.492 15.8867C461.51 16.2513 461.542 16.6797 461.588 17.1719C461.643 17.6641 461.729 18.0833 461.848 18.4297C461.975 18.7669 462.135 19.0951 462.326 19.4141C462.518 19.7331 462.768 19.9746 463.078 20.1387C463.388 20.3027 463.748 20.3848 464.158 20.3848C465.826 20.3848 467.216 19.4961 468.328 17.7188L469.162 18.2793ZM464.158 8.87305C463.602 8.87305 463.115 9.10547 462.695 9.57031C462.276 10.026 461.966 10.6048 461.766 11.3066C461.565 12.0085 461.465 12.765 461.465 13.5762H466.373C466.41 13.084 466.428 12.6738 466.428 12.3457C466.428 11.972 466.414 11.6439 466.387 11.3613C466.368 11.0697 466.314 10.7598 466.223 10.4316C466.132 10.1035 466.004 9.83464 465.84 9.625C465.685 9.40625 465.462 9.22852 465.17 9.0918C464.887 8.94596 464.55 8.87305 464.158 8.87305Z" fill="black"/>
<path d="M453.303 9.29688V21H450.227V9.29688H446.48V8.28516H457.062V9.29688H453.303Z" fill="black"/>
<path d="M440.779 8.90039C438.984 8.90039 438.086 10.7962 438.086 14.5879C438.086 15.0801 438.095 15.5312 438.113 15.9414C438.141 16.3516 438.186 16.7891 438.25 17.2539C438.314 17.7188 438.41 18.1289 438.537 18.4844C438.674 18.8398 438.838 19.168 439.029 19.4688C439.23 19.7604 439.48 19.9883 439.781 20.1523C440.091 20.3073 440.442 20.3848 440.834 20.3848C442.256 20.3848 443.477 19.528 444.498 17.8145L445.373 18.2793C444.17 20.3757 442.657 21.4238 440.834 21.4238C439.786 21.4238 438.87 21.2552 438.086 20.918C437.302 20.5807 436.673 20.1068 436.199 19.4961C435.734 18.8763 435.388 18.1745 435.16 17.3906C434.932 16.5977 434.818 15.7181 434.818 14.752C434.818 12.61 435.383 10.9284 436.514 9.70703C437.644 8.47656 439.084 7.86133 440.834 7.86133C442.174 7.86133 443.5 8.2168 444.812 8.92773V11.1426H443.801C443.29 9.64779 442.283 8.90039 440.779 8.90039Z" fill="black"/>
<path d="M432.521 18.2793C431.956 19.2546 431.245 20.0247 430.389 20.5898C429.532 21.1458 428.575 21.4238 427.518 21.4238C425.649 21.4238 424.186 20.7858 423.129 19.5098C422.081 18.2246 421.557 16.584 421.557 14.5879C421.557 12.6191 422.094 11.0059 423.17 9.74805C424.255 8.49023 425.704 7.86133 427.518 7.86133C429.176 7.86133 430.503 8.38542 431.496 9.43359C432.499 10.4727 433 11.8262 433 13.4941C433 13.8587 432.982 14.2233 432.945 14.5879H424.824C424.824 15.0892 424.833 15.5221 424.852 15.8867C424.87 16.2513 424.902 16.6797 424.947 17.1719C425.002 17.6641 425.089 18.0833 425.207 18.4297C425.335 18.7669 425.494 19.0951 425.686 19.4141C425.877 19.7331 426.128 19.9746 426.438 20.1387C426.747 20.3027 427.107 20.3848 427.518 20.3848C429.186 20.3848 430.576 19.4961 431.688 17.7188L432.521 18.2793ZM427.518 8.87305C426.962 8.87305 426.474 9.10547 426.055 9.57031C425.635 10.026 425.326 10.6048 425.125 11.3066C424.924 12.0085 424.824 12.765 424.824 13.5762H429.732C429.769 13.084 429.787 12.6738 429.787 12.3457C429.787 11.972 429.773 11.6439 429.746 11.3613C429.728 11.0697 429.673 10.7598 429.582 10.4316C429.491 10.1035 429.363 9.83464 429.199 9.625C429.044 9.40625 428.821 9.22852 428.529 9.0918C428.247 8.94596 427.91 8.87305 427.518 8.87305Z" fill="black"/>
<path d="M415.541 8.28516H418.768V21H415.678V10.7188L411.426 21.4238H410.865L406.613 10.7188V21H405.602V8.28516H408.965L412.273 16.543L415.541 8.28516Z" fill="black"/>
<path d="M395.689 9.29688V13.7266H397.316C397.891 13.7266 398.342 13.526 398.67 13.125C398.998 12.7148 399.162 12.1406 399.162 11.4023C399.162 9.9987 398.483 9.29688 397.125 9.29688H395.689ZM395.689 14.7246V19.9883H397.74C398.406 19.9883 398.925 19.7832 399.299 19.373C399.682 18.9629 399.873 18.3294 399.873 17.4727C399.873 16.625 399.686 15.9551 399.312 15.4629C398.939 14.9707 398.415 14.7246 397.74 14.7246H395.689ZM402.949 17.6094C402.949 18.1471 402.84 18.6257 402.621 19.0449C402.411 19.4551 402.143 19.7832 401.814 20.0293C401.486 20.2663 401.099 20.4622 400.652 20.6172C400.206 20.763 399.777 20.8633 399.367 20.918C398.957 20.9727 398.538 21 398.109 21H392.613V8.28516H397.686C398.114 8.28516 398.524 8.30794 398.916 8.35352C399.308 8.39909 399.714 8.49023 400.133 8.62695C400.552 8.75456 400.912 8.92773 401.213 9.14648C401.514 9.35612 401.76 9.64323 401.951 10.0078C402.152 10.3633 402.252 10.778 402.252 11.252C402.252 12.7467 401.327 13.7174 399.477 14.1641C400.543 14.3555 401.386 14.7428 402.006 15.3262C402.635 15.9004 402.949 16.6615 402.949 17.6094Z" fill="black"/>
<path d="M372.625 21H367.129V8.28516H370.205V13.7266H372.625C373.154 13.7266 373.669 13.7949 374.17 13.9316C374.671 14.0592 375.154 14.2643 375.619 14.5469C376.084 14.8203 376.458 15.2122 376.74 15.7227C377.032 16.224 377.178 16.8073 377.178 17.4727C377.178 18.138 377.036 18.7122 376.754 19.1953C376.471 19.6784 376.093 20.0475 375.619 20.3027C375.145 20.5488 374.662 20.7266 374.17 20.8359C373.678 20.9453 373.163 21 372.625 21ZM378.887 21V8.28516H381.977V21H378.887ZM371.504 19.9883C372.37 19.9883 373.017 19.7878 373.445 19.3867C373.883 18.9857 374.102 18.3477 374.102 17.4727C374.102 16.5794 373.878 15.9004 373.432 15.4355C372.985 14.9616 372.342 14.7246 371.504 14.7246H370.205V19.9883H371.504Z" fill="black"/>
<path d="M362.631 21H352.609L351.229 24.3906H350.34V19.9883H351.734L357.367 8.09375H357.928L363.328 19.9883H364.9V24.3906H363.998L362.631 21ZM352.855 19.9883H359.938L356.465 12.1816L352.855 19.9883Z" fill="black"/>
<path d="M338.131 14.5879C338.131 13.3939 338.382 12.2865 338.883 11.2656C339.393 10.2448 340.118 9.42448 341.057 8.80469C342.005 8.17578 343.062 7.86133 344.229 7.86133C346.024 7.86133 347.492 8.49479 348.631 9.76172C349.77 11.0286 350.34 12.6374 350.34 14.5879C350.34 15.7819 350.085 16.8984 349.574 17.9375C349.064 18.9766 348.335 19.8197 347.387 20.4668C346.448 21.1048 345.395 21.4238 344.229 21.4238C342.442 21.4238 340.979 20.7767 339.84 19.4824C338.701 18.179 338.131 16.5475 338.131 14.5879ZM346.908 17.0352C347.008 16.3333 347.059 15.5176 347.059 14.5879C347.059 13.6582 347.008 12.8516 346.908 12.168C346.808 11.4753 346.676 10.9238 346.512 10.5137C346.357 10.0944 346.152 9.76172 345.896 9.51562C345.65 9.26042 345.395 9.0918 345.131 9.00977C344.867 8.91862 344.566 8.87305 344.229 8.87305C343.891 8.87305 343.59 8.91862 343.326 9.00977C343.062 9.0918 342.802 9.26042 342.547 9.51562C342.301 9.76172 342.096 10.0944 341.932 10.5137C341.777 10.9238 341.649 11.4753 341.549 12.168C341.449 12.8516 341.398 13.6582 341.398 14.5879C341.398 15.5176 341.449 16.3333 341.549 17.0352C341.649 17.7279 341.777 18.2884 341.932 18.7168C342.096 19.1361 342.301 19.4779 342.547 19.7422C342.802 19.9974 343.062 20.1751 343.326 20.2754C343.59 20.3665 343.891 20.4121 344.229 20.4121C344.566 20.4121 344.867 20.3665 345.131 20.2754C345.395 20.1751 345.65 19.9974 345.896 19.7422C346.152 19.4779 346.357 19.1361 346.512 18.7168C346.676 18.2884 346.808 17.7279 346.908 17.0352Z" fill="black"/>
<path d="M332.115 8.28516H335.342V21H332.252V10.7188L328 21.4238H327.439L323.188 10.7188V21H322.176V8.28516H325.539L328.848 16.543L332.115 8.28516Z" fill="black"/>
<path d="M312.045 18.2793C311.48 19.2546 310.769 20.0247 309.912 20.5898C309.055 21.1458 308.098 21.4238 307.041 21.4238C305.173 21.4238 303.71 20.7858 302.652 19.5098C301.604 18.2246 301.08 16.584 301.08 14.5879C301.08 12.6191 301.618 11.0059 302.693 9.74805C303.778 8.49023 305.227 7.86133 307.041 7.86133C308.7 7.86133 310.026 8.38542 311.02 9.43359C312.022 10.4727 312.523 11.8262 312.523 13.4941C312.523 13.8587 312.505 14.2233 312.469 14.5879H304.348C304.348 15.0892 304.357 15.5221 304.375 15.8867C304.393 16.2513 304.425 16.6797 304.471 17.1719C304.525 17.6641 304.612 18.0833 304.73 18.4297C304.858 18.7669 305.018 19.0951 305.209 19.4141C305.4 19.7331 305.651 19.9746 305.961 20.1387C306.271 20.3027 306.631 20.3848 307.041 20.3848C308.709 20.3848 310.099 19.4961 311.211 17.7188L312.045 18.2793ZM307.041 8.87305C306.485 8.87305 305.997 9.10547 305.578 9.57031C305.159 10.026 304.849 10.6048 304.648 11.3066C304.448 12.0085 304.348 12.765 304.348 13.5762H309.256C309.292 13.084 309.311 12.6738 309.311 12.3457C309.311 11.972 309.297 11.6439 309.27 11.3613C309.251 11.0697 309.197 10.7598 309.105 10.4316C309.014 10.1035 308.887 9.83464 308.723 9.625C308.568 9.40625 308.344 9.22852 308.053 9.0918C307.77 8.94596 307.433 8.87305 307.041 8.87305Z" fill="black"/>
<path d="M295.83 14.6973C295.83 14.0775 295.816 13.5443 295.789 13.0977C295.771 12.6419 295.73 12.1816 295.666 11.7168C295.611 11.2428 295.525 10.8509 295.406 10.541C295.288 10.222 295.133 9.93034 294.941 9.66602C294.759 9.40169 294.527 9.21029 294.244 9.0918C293.962 8.96419 293.633 8.90039 293.26 8.90039C292.403 8.90039 291.674 9.35612 291.072 10.2676C290.471 11.1699 290.17 12.5189 290.17 14.3145V15.6543C290.17 17.1582 290.475 18.3249 291.086 19.1543C291.697 19.9746 292.421 20.3848 293.26 20.3848C293.652 20.3848 293.989 20.3255 294.271 20.207C294.563 20.0885 294.8 19.9017 294.982 19.6465C295.165 19.3913 295.315 19.1178 295.434 18.8262C295.552 18.5254 295.639 18.138 295.693 17.6641C295.748 17.181 295.785 16.7253 295.803 16.2969C295.821 15.8685 295.83 15.3353 295.83 14.6973ZM290.17 19.0996V26.1816H287.094V8.28516H290.17V10.3086C290.535 9.58854 291.036 9.00065 291.674 8.54492C292.321 8.08919 293.036 7.86133 293.82 7.86133C294.586 7.86133 295.274 8.0026 295.885 8.28516C296.505 8.56771 297.01 8.93685 297.402 9.39258C297.794 9.84831 298.122 10.3815 298.387 10.9922C298.651 11.6029 298.838 12.2135 298.947 12.8242C299.057 13.4349 299.111 14.0592 299.111 14.6973C299.111 15.554 299.002 16.3743 298.783 17.1582C298.574 17.9329 298.264 18.6439 297.854 19.291C297.443 19.9382 296.892 20.4577 296.199 20.8496C295.516 21.2324 294.741 21.4238 293.875 21.4238C293.128 21.4238 292.426 21.2096 291.77 20.7812C291.113 20.3438 290.58 19.7832 290.17 19.0996Z" fill="black"/>
<path d="M280.928 8.28516H283.457V21H280.367V11.1152L274.598 21H272.082V8.28516H275.158V18.1699L280.928 8.28516Z" fill="black"/>
<path d="M265.232 8.28516H268.459V21H265.369V10.7188L261.117 21.4238H260.557L256.305 10.7188V21H255.293V8.28516H258.656L261.965 16.543L265.232 8.28516Z" fill="black"/>
<path d="M238.381 9.29688V13.7266H240.008C240.582 13.7266 241.033 13.526 241.361 13.125C241.689 12.7148 241.854 12.1406 241.854 11.4023C241.854 9.9987 241.174 9.29688 239.816 9.29688H238.381ZM238.381 14.7246V19.9883H240.432C241.097 19.9883 241.617 19.7832 241.99 19.373C242.373 18.9629 242.564 18.3294 242.564 17.4727C242.564 16.625 242.378 15.9551 242.004 15.4629C241.63 14.9707 241.106 14.7246 240.432 14.7246H238.381ZM245.641 17.6094C245.641 18.1471 245.531 18.6257 245.312 19.0449C245.103 19.4551 244.834 19.7832 244.506 20.0293C244.178 20.2663 243.79 20.4622 243.344 20.6172C242.897 20.763 242.469 20.8633 242.059 20.918C241.648 20.9727 241.229 21 240.801 21H235.305V8.28516H240.377C240.805 8.28516 241.215 8.30794 241.607 8.35352C241.999 8.39909 242.405 8.49023 242.824 8.62695C243.243 8.75456 243.604 8.92773 243.904 9.14648C244.205 9.35612 244.451 9.64323 244.643 10.0078C244.843 10.3633 244.943 10.778 244.943 11.252C244.943 12.7467 244.018 13.7174 242.168 14.1641C243.234 14.3555 244.077 14.7428 244.697 15.3262C245.326 15.9004 245.641 16.6615 245.641 17.6094Z" fill="black"/>
<path d="M218.639 26.1816H217.244L219.254 21.9023L213.375 8.28516H216.738L220.881 17.8691L224.668 8.28516H225.775L218.639 26.1816Z" fill="black"/>
<path d="M208.986 14.6973C208.986 14.0775 208.973 13.5443 208.945 13.0977C208.927 12.6419 208.886 12.1816 208.822 11.7168C208.768 11.2428 208.681 10.8509 208.562 10.541C208.444 10.222 208.289 9.93034 208.098 9.66602C207.915 9.40169 207.683 9.21029 207.4 9.0918C207.118 8.96419 206.79 8.90039 206.416 8.90039C205.559 8.90039 204.83 9.35612 204.229 10.2676C203.627 11.1699 203.326 12.5189 203.326 14.3145V15.6543C203.326 17.1582 203.632 18.3249 204.242 19.1543C204.853 19.9746 205.577 20.3848 206.416 20.3848C206.808 20.3848 207.145 20.3255 207.428 20.207C207.719 20.0885 207.956 19.9017 208.139 19.6465C208.321 19.3913 208.471 19.1178 208.59 18.8262C208.708 18.5254 208.795 18.138 208.85 17.6641C208.904 17.181 208.941 16.7253 208.959 16.2969C208.977 15.8685 208.986 15.3353 208.986 14.6973ZM203.326 19.0996V26.1816H200.25V8.28516H203.326V10.3086C203.691 9.58854 204.192 9.00065 204.83 8.54492C205.477 8.08919 206.193 7.86133 206.977 7.86133C207.742 7.86133 208.43 8.0026 209.041 8.28516C209.661 8.56771 210.167 8.93685 210.559 9.39258C210.951 9.84831 211.279 10.3815 211.543 10.9922C211.807 11.6029 211.994 12.2135 212.104 12.8242C212.213 13.4349 212.268 14.0592 212.268 14.6973C212.268 15.554 212.158 16.3743 211.939 17.1582C211.73 17.9329 211.42 18.6439 211.01 19.291C210.6 19.9382 210.048 20.4577 209.355 20.8496C208.672 21.2324 207.897 21.4238 207.031 21.4238C206.284 21.4238 205.582 21.2096 204.926 20.7812C204.27 20.3438 203.736 19.7832 203.326 19.0996Z" fill="black"/>
<path d="M197.119 18.2793C196.554 19.2546 195.843 20.0247 194.986 20.5898C194.13 21.1458 193.173 21.4238 192.115 21.4238C190.247 21.4238 188.784 20.7858 187.727 19.5098C186.678 18.2246 186.154 16.584 186.154 14.5879C186.154 12.6191 186.692 11.0059 187.768 9.74805C188.852 8.49023 190.301 7.86133 192.115 7.86133C193.774 7.86133 195.1 8.38542 196.094 9.43359C197.096 10.4727 197.598 11.8262 197.598 13.4941C197.598 13.8587 197.579 14.2233 197.543 14.5879H189.422C189.422 15.0892 189.431 15.5221 189.449 15.8867C189.467 16.2513 189.499 16.6797 189.545 17.1719C189.6 17.6641 189.686 18.0833 189.805 18.4297C189.932 18.7669 190.092 19.0951 190.283 19.4141C190.475 19.7331 190.725 19.9746 191.035 20.1387C191.345 20.3027 191.705 20.3848 192.115 20.3848C193.783 20.3848 195.173 19.4961 196.285 17.7188L197.119 18.2793ZM192.115 8.87305C191.559 8.87305 191.072 9.10547 190.652 9.57031C190.233 10.026 189.923 10.6048 189.723 11.3066C189.522 12.0085 189.422 12.765 189.422 13.5762H194.33C194.367 13.084 194.385 12.6738 194.385 12.3457C194.385 11.972 194.371 11.6439 194.344 11.3613C194.326 11.0697 194.271 10.7598 194.18 10.4316C194.089 10.1035 193.961 9.83464 193.797 9.625C193.642 9.40625 193.419 9.22852 193.127 9.0918C192.844 8.94596 192.507 8.87305 192.115 8.87305Z" fill="black"/>
<path d="M179.059 19.9883C179.924 19.9883 180.572 19.7878 181 19.3867C181.438 18.9857 181.656 18.3477 181.656 17.4727C181.656 16.5794 181.433 15.9004 180.986 15.4355C180.54 14.9616 179.897 14.7246 179.059 14.7246H177.76V19.9883H179.059ZM180.18 21H174.684V8.28516H177.76V13.7266H180.18C180.708 13.7266 181.223 13.7949 181.725 13.9316C182.226 14.0592 182.709 14.2643 183.174 14.5469C183.639 14.8203 184.012 15.2122 184.295 15.7227C184.587 16.224 184.732 16.8073 184.732 17.4727C184.732 18.138 184.591 18.7122 184.309 19.1953C184.026 19.6784 183.648 20.0475 183.174 20.3027C182.7 20.5488 182.217 20.7266 181.725 20.8359C181.232 20.9453 180.717 21 180.18 21Z" fill="black"/>
<path d="M168.6 14.6973C168.6 14.0775 168.586 13.5443 168.559 13.0977C168.54 12.6419 168.499 12.1816 168.436 11.7168C168.381 11.2428 168.294 10.8509 168.176 10.541C168.057 10.222 167.902 9.93034 167.711 9.66602C167.529 9.40169 167.296 9.21029 167.014 9.0918C166.731 8.96419 166.403 8.90039 166.029 8.90039C165.173 8.90039 164.443 9.35612 163.842 10.2676C163.24 11.1699 162.939 12.5189 162.939 14.3145V15.6543C162.939 17.1582 163.245 18.3249 163.855 19.1543C164.466 19.9746 165.191 20.3848 166.029 20.3848C166.421 20.3848 166.758 20.3255 167.041 20.207C167.333 20.0885 167.57 19.9017 167.752 19.6465C167.934 19.3913 168.085 19.1178 168.203 18.8262C168.322 18.5254 168.408 18.138 168.463 17.6641C168.518 17.181 168.554 16.7253 168.572 16.2969C168.59 15.8685 168.6 15.3353 168.6 14.6973ZM162.939 19.0996V26.1816H159.863V8.28516H162.939V10.3086C163.304 9.58854 163.805 9.00065 164.443 8.54492C165.09 8.08919 165.806 7.86133 166.59 7.86133C167.355 7.86133 168.044 8.0026 168.654 8.28516C169.274 8.56771 169.78 8.93685 170.172 9.39258C170.564 9.84831 170.892 10.3815 171.156 10.9922C171.421 11.6029 171.607 12.2135 171.717 12.8242C171.826 13.4349 171.881 14.0592 171.881 14.6973C171.881 15.554 171.771 16.3743 171.553 17.1582C171.343 17.9329 171.033 18.6439 170.623 19.291C170.213 19.9382 169.661 20.4577 168.969 20.8496C168.285 21.2324 167.51 21.4238 166.645 21.4238C165.897 21.4238 165.195 21.2096 164.539 20.7812C163.883 20.3438 163.35 19.7832 162.939 19.0996Z" fill="black"/>
<path d="M145.781 17.4727C145.781 16.3151 146.187 15.3581 146.998 14.6016C147.818 13.8451 148.889 13.4668 150.211 13.4668C150.849 13.4668 151.441 13.5625 151.988 13.7539C152.535 13.9453 152.968 14.2142 153.287 14.5605V12.0723C153.287 11.4434 153.201 10.8919 153.027 10.418C152.854 9.9349 152.622 9.56576 152.33 9.31055C152.048 9.05534 151.715 8.89583 151.332 8.83203C150.949 8.75911 150.553 8.79102 150.143 8.92773C149.742 9.06445 149.327 9.3151 148.898 9.67969C148.479 10.0443 148.096 10.5046 147.75 11.0605H146.738V9.26953C147.176 8.95052 147.718 8.67708 148.365 8.44922C149.012 8.21224 149.691 8.04362 150.402 7.94336C151.122 7.8431 151.838 7.8431 152.549 7.94336C153.26 8.04362 153.898 8.23958 154.463 8.53125C155.028 8.8138 155.488 9.26042 155.844 9.87109C156.199 10.4727 156.377 11.1973 156.377 12.0449V21H153.287V19.5508C152.932 20.0885 152.43 20.5352 151.783 20.8906C151.145 21.2461 150.443 21.4238 149.678 21.4238C148.538 21.4238 147.604 21.041 146.875 20.2754C146.146 19.5098 145.781 18.5755 145.781 17.4727ZM148.871 17.5C148.871 19.2956 149.459 20.1934 150.635 20.1934C151.291 20.1934 151.897 19.9518 152.453 19.4688C153.009 18.9857 153.287 18.4342 153.287 17.8145V16.3789C153.287 15.7682 153.041 15.2988 152.549 14.9707C152.066 14.6426 151.537 14.4785 150.963 14.4785C150.261 14.4785 149.737 14.7428 149.391 15.2715C149.044 15.791 148.871 16.5339 148.871 17.5Z" fill="black"/>
<path d="M136.744 8.28516V14H137.947L142.883 8.28516H144.359L140.504 12.6602L145.043 21H141.543L138.398 15.0117H136.744V21H133.668V8.28516H136.744Z" fill="black"/>
<path d="M123.537 18.2793C122.972 19.2546 122.261 20.0247 121.404 20.5898C120.548 21.1458 119.59 21.4238 118.533 21.4238C116.665 21.4238 115.202 20.7858 114.145 19.5098C113.096 18.2246 112.572 16.584 112.572 14.5879C112.572 12.6191 113.11 11.0059 114.186 9.74805C115.27 8.49023 116.719 7.86133 118.533 7.86133C120.192 7.86133 121.518 8.38542 122.512 9.43359C123.514 10.4727 124.016 11.8262 124.016 13.4941C124.016 13.8587 123.997 14.2233 123.961 14.5879H115.84C115.84 15.0892 115.849 15.5221 115.867 15.8867C115.885 16.2513 115.917 16.6797 115.963 17.1719C116.018 17.6641 116.104 18.0833 116.223 18.4297C116.35 18.7669 116.51 19.0951 116.701 19.4141C116.893 19.7331 117.143 19.9746 117.453 20.1387C117.763 20.3027 118.123 20.3848 118.533 20.3848C120.201 20.3848 121.591 19.4961 122.703 17.7188L123.537 18.2793ZM118.533 8.87305C117.977 8.87305 117.49 9.10547 117.07 9.57031C116.651 10.026 116.341 10.6048 116.141 11.3066C115.94 12.0085 115.84 12.765 115.84 13.5762H120.748C120.785 13.084 120.803 12.6738 120.803 12.3457C120.803 11.972 120.789 11.6439 120.762 11.3613C120.743 11.0697 120.689 10.7598 120.598 10.4316C120.507 10.1035 120.379 9.83464 120.215 9.625C120.06 9.40625 119.837 9.22852 119.545 9.0918C119.262 8.94596 118.925 8.87305 118.533 8.87305Z" fill="black"/>
<path d="M107.678 9.29688V21H104.602V9.29688H100.855V8.28516H111.438V9.29688H107.678Z" fill="black"/>
<path d="M97.5742 3.74609C96.4805 4.8125 94.9492 5.3457 92.9805 5.3457C91.0117 5.3457 89.4805 4.8125 88.3867 3.74609L88.8105 2.00977H89.5352C89.8542 2.77539 90.3099 3.35872 90.9023 3.75977C91.5039 4.16081 92.1966 4.36133 92.9805 4.36133C93.7643 4.36133 94.4525 4.16081 95.0449 3.75977C95.6465 3.35872 96.1068 2.77539 96.4258 2.00977H97.1504L97.5742 3.74609ZM96.084 8.28516H98.6133V21H95.5234V11.1152L89.7539 21H87.2383V8.28516H90.3145V18.1699L96.084 8.28516Z" fill="black"/>
<path d="M72.2402 14.5879C72.2402 13.3939 72.4909 12.2865 72.9922 11.2656C73.5026 10.2448 74.2272 9.42448 75.166 8.80469C76.1139 8.17578 77.1712 7.86133 78.3379 7.86133C80.1335 7.86133 81.6009 8.49479 82.7402 9.76172C83.8796 11.0286 84.4492 12.6374 84.4492 14.5879C84.4492 15.7819 84.194 16.8984 83.6836 17.9375C83.1732 18.9766 82.444 19.8197 81.4961 20.4668C80.5573 21.1048 79.5046 21.4238 78.3379 21.4238C76.5514 21.4238 75.0885 20.7767 73.9492 19.4824C72.8099 18.179 72.2402 16.5475 72.2402 14.5879ZM81.0176 17.0352C81.1178 16.3333 81.168 15.5176 81.168 14.5879C81.168 13.6582 81.1178 12.8516 81.0176 12.168C80.9173 11.4753 80.7852 10.9238 80.6211 10.5137C80.4661 10.0944 80.2611 9.76172 80.0059 9.51562C79.7598 9.26042 79.5046 9.0918 79.2402 9.00977C78.9759 8.91862 78.6751 8.87305 78.3379 8.87305C78.0007 8.87305 77.6999 8.91862 77.4355 9.00977C77.1712 9.0918 76.9115 9.26042 76.6562 9.51562C76.4102 9.76172 76.2051 10.0944 76.041 10.5137C75.8861 10.9238 75.7585 11.4753 75.6582 12.168C75.5579 12.8516 75.5078 13.6582 75.5078 14.5879C75.5078 15.5176 75.5579 16.3333 75.6582 17.0352C75.7585 17.7279 75.8861 18.2884 76.041 18.7168C76.2051 19.1361 76.4102 19.4779 76.6562 19.7422C76.9115 19.9974 77.1712 20.1751 77.4355 20.2754C77.6999 20.3665 78.0007 20.4121 78.3379 20.4121C78.6751 20.4121 78.9759 20.3665 79.2402 20.2754C79.5046 20.1751 79.7598 19.9974 80.0059 19.7422C80.2611 19.4779 80.4661 19.1361 80.6211 18.7168C80.7852 18.2884 80.9173 17.7279 81.0176 17.0352Z" fill="black"/>
<path d="M66.9902 14.6973C66.9902 14.0775 66.9766 13.5443 66.9492 13.0977C66.931 12.6419 66.89 12.1816 66.8262 11.7168C66.7715 11.2428 66.6849 10.8509 66.5664 10.541C66.4479 10.222 66.293 9.93034 66.1016 9.66602C65.9193 9.40169 65.6868 9.21029 65.4043 9.0918C65.1217 8.96419 64.7936 8.90039 64.4199 8.90039C63.5632 8.90039 62.834 9.35612 62.2324 10.2676C61.6309 11.1699 61.3301 12.5189 61.3301 14.3145V15.6543C61.3301 17.1582 61.6354 18.3249 62.2461 19.1543C62.8568 19.9746 63.5814 20.3848 64.4199 20.3848C64.8118 20.3848 65.1491 20.3255 65.4316 20.207C65.7233 20.0885 65.9603 19.9017 66.1426 19.6465C66.3249 19.3913 66.4753 19.1178 66.5938 18.8262C66.7122 18.5254 66.7988 18.138 66.8535 17.6641C66.9082 17.181 66.9447 16.7253 66.9629 16.2969C66.9811 15.8685 66.9902 15.3353 66.9902 14.6973ZM61.3301 19.0996V26.1816H58.2539V8.28516H61.3301V10.3086C61.6947 9.58854 62.196 9.00065 62.834 8.54492C63.4811 8.08919 64.1966 7.86133 64.9805 7.86133C65.7461 7.86133 66.4342 8.0026 67.0449 8.28516C67.6647 8.56771 68.1706 8.93685 68.5625 9.39258C68.9544 9.84831 69.2826 10.3815 69.5469 10.9922C69.8112 11.6029 69.998 12.2135 70.1074 12.8242C70.2168 13.4349 70.2715 14.0592 70.2715 14.6973C70.2715 15.554 70.1621 16.3743 69.9434 17.1582C69.7337 17.9329 69.4238 18.6439 69.0137 19.291C68.6035 19.9382 68.0521 20.4577 67.3594 20.8496C66.6758 21.2324 65.901 21.4238 65.0352 21.4238C64.2878 21.4238 63.5859 21.2096 62.9297 20.7812C62.2734 20.3438 61.7402 19.7832 61.3301 19.0996Z" fill="black"/>
<path d="M52.252 9.29688V21H49.1758V9.29688H45.4297V8.28516H56.0117V9.29688H52.252Z" fill="black"/>
<path d="M39.7285 8.90039C37.9329 8.90039 37.0352 10.7962 37.0352 14.5879C37.0352 15.0801 37.0443 15.5312 37.0625 15.9414C37.0898 16.3516 37.1354 16.7891 37.1992 17.2539C37.263 17.7188 37.3587 18.1289 37.4863 18.4844C37.623 18.8398 37.7871 19.168 37.9785 19.4688C38.179 19.7604 38.4297 19.9883 38.7305 20.1523C39.0404 20.3073 39.3913 20.3848 39.7832 20.3848C41.2051 20.3848 42.4264 19.528 43.4473 17.8145L44.3223 18.2793C43.1191 20.3757 41.6061 21.4238 39.7832 21.4238C38.735 21.4238 37.819 21.2552 37.0352 20.918C36.2513 20.5807 35.6224 20.1068 35.1484 19.4961C34.6836 18.8763 34.3372 18.1745 34.1094 17.3906C33.8815 16.5977 33.7676 15.7181 33.7676 14.752C33.7676 12.61 34.3327 10.9284 35.4629 9.70703C36.5931 8.47656 38.0332 7.86133 39.7832 7.86133C41.123 7.86133 42.4492 8.2168 43.7617 8.92773V11.1426H42.75C42.2396 9.64779 41.2324 8.90039 39.7285 8.90039Z" fill="black"/>
<path d="M19.6035 14.5879C19.6035 13.3939 19.8542 12.2865 20.3555 11.2656C20.8659 10.2448 21.5905 9.42448 22.5293 8.80469C23.4772 8.17578 24.5345 7.86133 25.7012 7.86133C27.4967 7.86133 28.9642 8.49479 30.1035 9.76172C31.2428 11.0286 31.8125 12.6374 31.8125 14.5879C31.8125 15.7819 31.5573 16.8984 31.0469 17.9375C30.5365 18.9766 29.8073 19.8197 28.8594 20.4668C27.9206 21.1048 26.8678 21.4238 25.7012 21.4238C23.9147 21.4238 22.4518 20.7767 21.3125 19.4824C20.1732 18.179 19.6035 16.5475 19.6035 14.5879ZM28.3809 17.0352C28.4811 16.3333 28.5312 15.5176 28.5312 14.5879C28.5312 13.6582 28.4811 12.8516 28.3809 12.168C28.2806 11.4753 28.1484 10.9238 27.9844 10.5137C27.8294 10.0944 27.6243 9.76172 27.3691 9.51562C27.123 9.26042 26.8678 9.0918 26.6035 9.00977C26.3392 8.91862 26.0384 8.87305 25.7012 8.87305C25.3639 8.87305 25.0632 8.91862 24.7988 9.00977C24.5345 9.0918 24.2747 9.26042 24.0195 9.51562C23.7734 9.76172 23.5684 10.0944 23.4043 10.5137C23.2493 10.9238 23.1217 11.4753 23.0215 12.168C22.9212 12.8516 22.8711 13.6582 22.8711 14.5879C22.8711 15.5176 22.9212 16.3333 23.0215 17.0352C23.1217 17.7279 23.2493 18.2884 23.4043 18.7168C23.5684 19.1361 23.7734 19.4779 24.0195 19.7422C24.2747 19.9974 24.5345 20.1751 24.7988 20.2754C25.0632 20.3665 25.3639 20.4121 25.7012 20.4121C26.0384 20.4121 26.3392 20.3665 26.6035 20.2754C26.8678 20.1751 27.123 19.9974 27.3691 19.7422C27.6243 19.4779 27.8294 19.1361 27.9844 18.7168C28.1484 18.2884 28.2806 17.7279 28.3809 17.0352Z" fill="black"/>
<path d="M6.28711 2.24219V21H2.62305V1.23047H16.9512V21H13.2871V2.24219H6.28711Z" fill="black"/>
</svg>
