<svg width="258" height="78" viewBox="0 0 258 78" fill="none" xmlns="http://www.w3.org/2000/svg">
<path d="M168.936 67.0938H167.924C167.924 65.9909 167.76 64.5736 167.432 62.8418C167.104 61.1009 166.775 59.4967 166.447 58.0293C166.128 56.5527 165.969 55.5866 165.969 55.1309C165.969 54.502 166.188 53.9733 166.625 53.5449C167.062 53.1165 167.664 52.9023 168.43 52.9023C169.195 52.9023 169.797 53.1165 170.234 53.5449C170.672 53.9733 170.891 54.502 170.891 55.1309C170.891 55.5866 170.727 56.5527 170.398 58.0293C170.079 59.4967 169.756 61.1009 169.428 62.8418C169.1 64.5736 168.936 65.9909 168.936 67.0938ZM166.475 71.1816C166.475 70.6439 166.666 70.1836 167.049 69.8008C167.432 69.418 167.892 69.2266 168.43 69.2266C168.977 69.2266 169.446 69.418 169.838 69.8008C170.23 70.1836 170.426 70.6439 170.426 71.1816C170.426 71.7285 170.23 72.1934 169.838 72.5762C169.446 72.9499 168.977 73.1367 168.43 73.1367C167.892 73.1367 167.432 72.9499 167.049 72.5762C166.666 72.1934 166.475 71.7285 166.475 71.1816Z" fill="black"/>
<path d="M159.939 60.2852H162.469V73H159.379V63.1152L153.609 73H151.094V60.2852H154.17V70.1699L159.939 60.2852Z" fill="black"/>
<path d="M144.244 60.2852H147.471V73H144.381V62.7188L140.129 73.4238H139.568L135.316 62.7188V73H134.305V60.2852H137.668L140.977 68.543L144.244 60.2852Z" fill="black"/>
<path d="M120.223 69.4727C120.223 68.3151 120.628 67.3581 121.439 66.6016C122.26 65.8451 123.331 65.4668 124.652 65.4668C125.29 65.4668 125.883 65.5625 126.43 65.7539C126.977 65.9453 127.41 66.2142 127.729 66.5605V64.0723C127.729 63.4434 127.642 62.8919 127.469 62.418C127.296 61.9349 127.063 61.5658 126.771 61.3105C126.489 61.0553 126.156 60.8958 125.773 60.832C125.391 60.7591 124.994 60.791 124.584 60.9277C124.183 61.0645 123.768 61.3151 123.34 61.6797C122.921 62.0443 122.538 62.5046 122.191 63.0605H121.18V61.2695C121.617 60.9505 122.16 60.6771 122.807 60.4492C123.454 60.2122 124.133 60.0436 124.844 59.9434C125.564 59.8431 126.279 59.8431 126.99 59.9434C127.701 60.0436 128.339 60.2396 128.904 60.5312C129.469 60.8138 129.93 61.2604 130.285 61.8711C130.641 62.4727 130.818 63.1973 130.818 64.0449V73H127.729V71.5508C127.373 72.0885 126.872 72.5352 126.225 72.8906C125.587 73.2461 124.885 73.4238 124.119 73.4238C122.98 73.4238 122.046 73.041 121.316 72.2754C120.587 71.5098 120.223 70.5755 120.223 69.4727ZM123.312 69.5C123.312 71.2956 123.9 72.1934 125.076 72.1934C125.732 72.1934 126.339 71.9518 126.895 71.4688C127.451 70.9857 127.729 70.4342 127.729 69.8145V68.3789C127.729 67.7682 127.482 67.2988 126.99 66.9707C126.507 66.6426 125.979 66.4785 125.404 66.4785C124.702 66.4785 124.178 66.7428 123.832 67.2715C123.486 67.791 123.312 68.5339 123.312 69.5Z" fill="black"/>
<path d="M109.545 66.7246V73H106.469V60.2852H109.545V65.7266H114.48V60.2852H117.557V73H114.48V66.7246H109.545Z" fill="black"/>
<path d="M92.373 60.9004C90.5775 60.9004 89.6797 62.7962 89.6797 66.5879C89.6797 67.0801 89.6888 67.5312 89.707 67.9414C89.7344 68.3516 89.7799 68.7891 89.8438 69.2539C89.9076 69.7188 90.0033 70.1289 90.1309 70.4844C90.2676 70.8398 90.4316 71.168 90.623 71.4688C90.8236 71.7604 91.0742 71.9883 91.375 72.1523C91.6849 72.3073 92.0358 72.3848 92.4277 72.3848C93.8496 72.3848 95.071 71.528 96.0918 69.8145L96.9668 70.2793C95.7637 72.3757 94.2507 73.4238 92.4277 73.4238C91.3796 73.4238 90.4635 73.2552 89.6797 72.918C88.8958 72.5807 88.2669 72.1068 87.793 71.4961C87.3281 70.8763 86.9818 70.1745 86.7539 69.3906C86.526 68.5977 86.4121 67.7181 86.4121 66.752C86.4121 64.61 86.9772 62.9284 88.1074 61.707C89.2376 60.4766 90.6777 59.8613 92.4277 59.8613C93.7676 59.8613 95.0938 60.2168 96.4062 60.9277V63.1426H95.3945C94.8841 61.6478 93.877 60.9004 92.373 60.9004Z" fill="black"/>
<path d="M246.182 44.2793C245.617 45.2546 244.906 46.0247 244.049 46.5898C243.192 47.1458 242.235 47.4238 241.178 47.4238C239.309 47.4238 237.846 46.7858 236.789 45.5098C235.741 44.2246 235.217 42.584 235.217 40.5879C235.217 38.6191 235.755 37.0059 236.83 35.748C237.915 34.4902 239.364 33.8613 241.178 33.8613C242.837 33.8613 244.163 34.3854 245.156 35.4336C246.159 36.4727 246.66 37.8262 246.66 39.4941C246.66 39.8587 246.642 40.2233 246.605 40.5879H238.484C238.484 41.0892 238.493 41.5221 238.512 41.8867C238.53 42.2513 238.562 42.6797 238.607 43.1719C238.662 43.6641 238.749 44.0833 238.867 44.4297C238.995 44.7669 239.154 45.0951 239.346 45.4141C239.537 45.7331 239.788 45.9746 240.098 46.1387C240.408 46.3027 240.768 46.3848 241.178 46.3848C242.846 46.3848 244.236 45.4961 245.348 43.7188L246.182 44.2793ZM241.178 34.873C240.622 34.873 240.134 35.1055 239.715 35.5703C239.296 36.026 238.986 36.6048 238.785 37.3066C238.585 38.0085 238.484 38.765 238.484 39.5762H243.393C243.429 39.084 243.447 38.6738 243.447 38.3457C243.447 37.972 243.434 37.6439 243.406 37.3613C243.388 37.0697 243.333 36.7598 243.242 36.4316C243.151 36.1035 243.023 35.8346 242.859 35.625C242.704 35.4062 242.481 35.2285 242.189 35.0918C241.907 34.946 241.57 34.873 241.178 34.873Z" fill="black"/>
<path d="M230.322 35.2969V47H227.246V35.2969H223.5V34.2852H234.082V35.2969H230.322Z" fill="black"/>
<path d="M217.799 34.9004C216.003 34.9004 215.105 36.7962 215.105 40.5879C215.105 41.0801 215.115 41.5312 215.133 41.9414C215.16 42.3516 215.206 42.7891 215.27 43.2539C215.333 43.7188 215.429 44.1289 215.557 44.4844C215.693 44.8398 215.857 45.168 216.049 45.4688C216.249 45.7604 216.5 45.9883 216.801 46.1523C217.111 46.3073 217.462 46.3848 217.854 46.3848C219.275 46.3848 220.497 45.528 221.518 43.8145L222.393 44.2793C221.189 46.3757 219.676 47.4238 217.854 47.4238C216.805 47.4238 215.889 47.2552 215.105 46.918C214.322 46.5807 213.693 46.1068 213.219 45.4961C212.754 44.8763 212.408 44.1745 212.18 43.3906C211.952 42.5977 211.838 41.7181 211.838 40.752C211.838 38.61 212.403 36.9284 213.533 35.707C214.663 34.4766 216.104 33.8613 217.854 33.8613C219.193 33.8613 220.52 34.2168 221.832 34.9277V37.1426H220.82C220.31 35.6478 219.303 34.9004 217.799 34.9004Z" fill="black"/>
<path d="M209.541 44.2793C208.976 45.2546 208.265 46.0247 207.408 46.5898C206.551 47.1458 205.594 47.4238 204.537 47.4238C202.669 47.4238 201.206 46.7858 200.148 45.5098C199.1 44.2246 198.576 42.584 198.576 40.5879C198.576 38.6191 199.114 37.0059 200.189 35.748C201.274 34.4902 202.723 33.8613 204.537 33.8613C206.196 33.8613 207.522 34.3854 208.516 35.4336C209.518 36.4727 210.02 37.8262 210.02 39.4941C210.02 39.8587 210.001 40.2233 209.965 40.5879H201.844C201.844 41.0892 201.853 41.5221 201.871 41.8867C201.889 42.2513 201.921 42.6797 201.967 43.1719C202.021 43.6641 202.108 44.0833 202.227 44.4297C202.354 44.7669 202.514 45.0951 202.705 45.4141C202.896 45.7331 203.147 45.9746 203.457 46.1387C203.767 46.3027 204.127 46.3848 204.537 46.3848C206.205 46.3848 207.595 45.4961 208.707 43.7188L209.541 44.2793ZM204.537 34.873C203.981 34.873 203.493 35.1055 203.074 35.5703C202.655 36.026 202.345 36.6048 202.145 37.3066C201.944 38.0085 201.844 38.765 201.844 39.5762H206.752C206.788 39.084 206.807 38.6738 206.807 38.3457C206.807 37.972 206.793 37.6439 206.766 37.3613C206.747 37.0697 206.693 36.7598 206.602 36.4316C206.51 36.1035 206.383 35.8346 206.219 35.625C206.064 35.4062 205.84 35.2285 205.549 35.0918C205.266 34.946 204.929 34.873 204.537 34.873Z" fill="black"/>
<path d="M192.561 34.2852H195.787V47H192.697V36.7188L188.445 47.4238H187.885L183.633 36.7188V47H182.621V34.2852H185.984L189.293 42.543L192.561 34.2852Z" fill="black"/>
<path d="M172.709 35.2969V39.7266H174.336C174.91 39.7266 175.361 39.526 175.689 39.125C176.018 38.7148 176.182 38.1406 176.182 37.4023C176.182 35.9987 175.503 35.2969 174.145 35.2969H172.709ZM172.709 40.7246V45.9883H174.76C175.425 45.9883 175.945 45.7832 176.318 45.373C176.701 44.9629 176.893 44.3294 176.893 43.4727C176.893 42.625 176.706 41.9551 176.332 41.4629C175.958 40.9707 175.434 40.7246 174.76 40.7246H172.709ZM179.969 43.6094C179.969 44.1471 179.859 44.6257 179.641 45.0449C179.431 45.4551 179.162 45.7832 178.834 46.0293C178.506 46.2663 178.118 46.4622 177.672 46.6172C177.225 46.763 176.797 46.8633 176.387 46.918C175.977 46.9727 175.557 47 175.129 47H169.633V34.2852H174.705C175.133 34.2852 175.544 34.3079 175.936 34.3535C176.327 34.3991 176.733 34.4902 177.152 34.627C177.572 34.7546 177.932 34.9277 178.232 35.1465C178.533 35.3561 178.779 35.6432 178.971 36.0078C179.171 36.3633 179.271 36.778 179.271 37.252C179.271 38.7467 178.346 39.7174 176.496 40.1641C177.562 40.3555 178.406 40.7428 179.025 41.3262C179.654 41.9004 179.969 42.6615 179.969 43.6094Z" fill="black"/>
<path d="M149.645 47H144.148V34.2852H147.225V39.7266H149.645C150.173 39.7266 150.688 39.7949 151.189 39.9316C151.691 40.0592 152.174 40.2643 152.639 40.5469C153.104 40.8203 153.477 41.2122 153.76 41.7227C154.051 42.224 154.197 42.8073 154.197 43.4727C154.197 44.138 154.056 44.7122 153.773 45.1953C153.491 45.6784 153.113 46.0475 152.639 46.3027C152.165 46.5488 151.682 46.7266 151.189 46.8359C150.697 46.9453 150.182 47 149.645 47ZM155.906 47V34.2852H158.996V47H155.906ZM148.523 45.9883C149.389 45.9883 150.036 45.7878 150.465 45.3867C150.902 44.9857 151.121 44.3477 151.121 43.4727C151.121 42.5794 150.898 41.9004 150.451 41.4355C150.005 40.9616 149.362 40.7246 148.523 40.7246H147.225V45.9883H148.523Z" fill="black"/>
<path d="M139.65 47H129.629L128.248 50.3906H127.359V45.9883H128.754L134.387 34.0938H134.947L140.348 45.9883H141.92V50.3906H141.018L139.65 47ZM129.875 45.9883H136.957L133.484 38.1816L129.875 45.9883Z" fill="black"/>
<path d="M115.15 40.5879C115.15 39.3939 115.401 38.2865 115.902 37.2656C116.413 36.2448 117.137 35.4245 118.076 34.8047C119.024 34.1758 120.081 33.8613 121.248 33.8613C123.044 33.8613 124.511 34.4948 125.65 35.7617C126.79 37.0286 127.359 38.6374 127.359 40.5879C127.359 41.7819 127.104 42.8984 126.594 43.9375C126.083 44.9766 125.354 45.8197 124.406 46.4668C123.467 47.1048 122.415 47.4238 121.248 47.4238C119.462 47.4238 117.999 46.7767 116.859 45.4824C115.72 44.179 115.15 42.5475 115.15 40.5879ZM123.928 43.0352C124.028 42.3333 124.078 41.5176 124.078 40.5879C124.078 39.6582 124.028 38.8516 123.928 38.168C123.827 37.4753 123.695 36.9238 123.531 36.5137C123.376 36.0944 123.171 35.7617 122.916 35.5156C122.67 35.2604 122.415 35.0918 122.15 35.0098C121.886 34.9186 121.585 34.873 121.248 34.873C120.911 34.873 120.61 34.9186 120.346 35.0098C120.081 35.0918 119.822 35.2604 119.566 35.5156C119.32 35.7617 119.115 36.0944 118.951 36.5137C118.796 36.9238 118.669 37.4753 118.568 38.168C118.468 38.8516 118.418 39.6582 118.418 40.5879C118.418 41.5176 118.468 42.3333 118.568 43.0352C118.669 43.7279 118.796 44.2884 118.951 44.7168C119.115 45.1361 119.32 45.4779 119.566 45.7422C119.822 45.9974 120.081 46.1751 120.346 46.2754C120.61 46.3665 120.911 46.4121 121.248 46.4121C121.585 46.4121 121.886 46.3665 122.15 46.2754C122.415 46.1751 122.67 45.9974 122.916 45.7422C123.171 45.4779 123.376 45.1361 123.531 44.7168C123.695 44.2884 123.827 43.7279 123.928 43.0352Z" fill="black"/>
<path d="M109.135 34.2852H112.361V47H109.271V36.7188L105.02 47.4238H104.459L100.207 36.7188V47H99.1953V34.2852H102.559L105.867 42.543L109.135 34.2852Z" fill="black"/>
<path d="M89.0645 44.2793C88.4993 45.2546 87.7884 46.0247 86.9316 46.5898C86.0749 47.1458 85.1178 47.4238 84.0605 47.4238C82.1921 47.4238 80.7292 46.7858 79.6719 45.5098C78.6237 44.2246 78.0996 42.584 78.0996 40.5879C78.0996 38.6191 78.6374 37.0059 79.7129 35.748C80.7975 34.4902 82.2467 33.8613 84.0605 33.8613C85.7194 33.8613 87.0456 34.3854 88.0391 35.4336C89.0417 36.4727 89.543 37.8262 89.543 39.4941C89.543 39.8587 89.5247 40.2233 89.4883 40.5879H81.3672C81.3672 41.0892 81.3763 41.5221 81.3945 41.8867C81.4128 42.2513 81.4447 42.6797 81.4902 43.1719C81.5449 43.6641 81.6315 44.0833 81.75 44.4297C81.8776 44.7669 82.0371 45.0951 82.2285 45.4141C82.4199 45.7331 82.6706 45.9746 82.9805 46.1387C83.2904 46.3027 83.6504 46.3848 84.0605 46.3848C85.7285 46.3848 87.1185 45.4961 88.2305 43.7188L89.0645 44.2793ZM84.0605 34.873C83.5046 34.873 83.0169 35.1055 82.5977 35.5703C82.1784 36.026 81.8685 36.6048 81.668 37.3066C81.4674 38.0085 81.3672 38.765 81.3672 39.5762H86.2754C86.3118 39.084 86.3301 38.6738 86.3301 38.3457C86.3301 37.972 86.3164 37.6439 86.2891 37.3613C86.2708 37.0697 86.2161 36.7598 86.125 36.4316C86.0339 36.1035 85.9062 35.8346 85.7422 35.625C85.5872 35.4062 85.3639 35.2285 85.0723 35.0918C84.7897 34.946 84.4525 34.873 84.0605 34.873Z" fill="black"/>
<path d="M72.8496 40.6973C72.8496 40.0775 72.8359 39.5443 72.8086 39.0977C72.7904 38.6419 72.7493 38.1816 72.6855 37.7168C72.6309 37.2428 72.5443 36.8509 72.4258 36.541C72.3073 36.222 72.1523 35.9303 71.9609 35.666C71.7786 35.4017 71.5462 35.2103 71.2637 35.0918C70.9811 34.9642 70.653 34.9004 70.2793 34.9004C69.4225 34.9004 68.6934 35.3561 68.0918 36.2676C67.4902 37.1699 67.1895 38.5189 67.1895 40.3145V41.6543C67.1895 43.1582 67.4948 44.3249 68.1055 45.1543C68.7161 45.9746 69.4408 46.3848 70.2793 46.3848C70.6712 46.3848 71.0085 46.3255 71.291 46.207C71.5827 46.0885 71.8197 45.9017 72.002 45.6465C72.1842 45.3913 72.3346 45.1178 72.4531 44.8262C72.5716 44.5254 72.6582 44.138 72.7129 43.6641C72.7676 43.181 72.804 42.7253 72.8223 42.2969C72.8405 41.8685 72.8496 41.3353 72.8496 40.6973ZM67.1895 45.0996V52.1816H64.1133V34.2852H67.1895V36.3086C67.554 35.5885 68.0553 35.0007 68.6934 34.5449C69.3405 34.0892 70.056 33.8613 70.8398 33.8613C71.6055 33.8613 72.2936 34.0026 72.9043 34.2852C73.5241 34.5677 74.0299 34.9368 74.4219 35.3926C74.8138 35.8483 75.1419 36.3815 75.4062 36.9922C75.6706 37.6029 75.8574 38.2135 75.9668 38.8242C76.0762 39.4349 76.1309 40.0592 76.1309 40.6973C76.1309 41.554 76.0215 42.3743 75.8027 43.1582C75.5931 43.9329 75.2832 44.6439 74.873 45.291C74.4629 45.9382 73.9115 46.4577 73.2188 46.8496C72.5352 47.2324 71.7604 47.4238 70.8945 47.4238C70.1471 47.4238 69.4453 47.2096 68.7891 46.7812C68.1328 46.3438 67.5996 45.7832 67.1895 45.0996Z" fill="black"/>
<path d="M57.9473 34.2852H60.4766V47H57.3867V37.1152L51.6172 47H49.1016V34.2852H52.1777V44.1699L57.9473 34.2852Z" fill="black"/>
<path d="M42.252 34.2852H45.4785V47H42.3887V36.7188L38.1367 47.4238H37.5762L33.3242 36.7188V47H32.3125V34.2852H35.6758L38.9844 42.543L42.252 34.2852Z" fill="black"/>
<path d="M15.4004 35.2969V39.7266H17.0273C17.6016 39.7266 18.0527 39.526 18.3809 39.125C18.709 38.7148 18.873 38.1406 18.873 37.4023C18.873 35.9987 18.194 35.2969 16.8359 35.2969H15.4004ZM15.4004 40.7246V45.9883H17.4512C18.1165 45.9883 18.6361 45.7832 19.0098 45.373C19.3926 44.9629 19.584 44.3294 19.584 43.4727C19.584 42.625 19.3971 41.9551 19.0234 41.4629C18.6497 40.9707 18.1257 40.7246 17.4512 40.7246H15.4004ZM22.6602 43.6094C22.6602 44.1471 22.5508 44.6257 22.332 45.0449C22.1224 45.4551 21.8535 45.7832 21.5254 46.0293C21.1973 46.2663 20.8099 46.4622 20.3633 46.6172C19.9167 46.763 19.4883 46.8633 19.0781 46.918C18.668 46.9727 18.2487 47 17.8203 47H12.3242V34.2852H17.3965C17.8249 34.2852 18.235 34.3079 18.627 34.3535C19.0189 34.3991 19.4245 34.4902 19.8438 34.627C20.263 34.7546 20.623 34.9277 20.9238 35.1465C21.2246 35.3561 21.4707 35.6432 21.6621 36.0078C21.8626 36.3633 21.9629 36.778 21.9629 37.252C21.9629 38.7467 21.0378 39.7174 19.1875 40.1641C20.2539 40.3555 21.097 40.7428 21.7168 41.3262C22.3457 41.9004 22.6602 42.6615 22.6602 43.6094Z" fill="black"/>
<path d="M234.205 26.1816H232.811L234.82 21.9023L228.941 8.28516H232.305L236.447 17.8691L240.234 8.28516H241.342L234.205 26.1816Z" fill="black"/>
<path d="M224.553 14.6973C224.553 14.0775 224.539 13.5443 224.512 13.0977C224.493 12.6419 224.452 12.1816 224.389 11.7168C224.334 11.2428 224.247 10.8509 224.129 10.541C224.01 10.222 223.855 9.93034 223.664 9.66602C223.482 9.40169 223.249 9.21029 222.967 9.0918C222.684 8.96419 222.356 8.90039 221.982 8.90039C221.126 8.90039 220.396 9.35612 219.795 10.2676C219.193 11.1699 218.893 12.5189 218.893 14.3145V15.6543C218.893 17.1582 219.198 18.3249 219.809 19.1543C220.419 19.9746 221.144 20.3848 221.982 20.3848C222.374 20.3848 222.712 20.3255 222.994 20.207C223.286 20.0885 223.523 19.9017 223.705 19.6465C223.887 19.3913 224.038 19.1178 224.156 18.8262C224.275 18.5254 224.361 18.138 224.416 17.6641C224.471 17.181 224.507 16.7253 224.525 16.2969C224.544 15.8685 224.553 15.3353 224.553 14.6973ZM218.893 19.0996V26.1816H215.816V8.28516H218.893V10.3086C219.257 9.58854 219.758 9.00065 220.396 8.54492C221.044 8.08919 221.759 7.86133 222.543 7.86133C223.309 7.86133 223.997 8.0026 224.607 8.28516C225.227 8.56771 225.733 8.93685 226.125 9.39258C226.517 9.84831 226.845 10.3815 227.109 10.9922C227.374 11.6029 227.561 12.2135 227.67 12.8242C227.779 13.4349 227.834 14.0592 227.834 14.6973C227.834 15.554 227.725 16.3743 227.506 17.1582C227.296 17.9329 226.986 18.6439 226.576 19.291C226.166 19.9382 225.615 20.4577 224.922 20.8496C224.238 21.2324 223.464 21.4238 222.598 21.4238C221.85 21.4238 221.148 21.2096 220.492 20.7812C219.836 20.3438 219.303 19.7832 218.893 19.0996Z" fill="black"/>
<path d="M212.686 18.2793C212.12 19.2546 211.41 20.0247 210.553 20.5898C209.696 21.1458 208.739 21.4238 207.682 21.4238C205.813 21.4238 204.35 20.7858 203.293 19.5098C202.245 18.2246 201.721 16.584 201.721 14.5879C201.721 12.6191 202.258 11.0059 203.334 9.74805C204.419 8.49023 205.868 7.86133 207.682 7.86133C209.34 7.86133 210.667 8.38542 211.66 9.43359C212.663 10.4727 213.164 11.8262 213.164 13.4941C213.164 13.8587 213.146 14.2233 213.109 14.5879H204.988C204.988 15.0892 204.997 15.5221 205.016 15.8867C205.034 16.2513 205.066 16.6797 205.111 17.1719C205.166 17.6641 205.253 18.0833 205.371 18.4297C205.499 18.7669 205.658 19.0951 205.85 19.4141C206.041 19.7331 206.292 19.9746 206.602 20.1387C206.911 20.3027 207.271 20.3848 207.682 20.3848C209.35 20.3848 210.74 19.4961 211.852 17.7188L212.686 18.2793ZM207.682 8.87305C207.126 8.87305 206.638 9.10547 206.219 9.57031C205.799 10.026 205.49 10.6048 205.289 11.3066C205.089 12.0085 204.988 12.765 204.988 13.5762H209.896C209.933 13.084 209.951 12.6738 209.951 12.3457C209.951 11.972 209.938 11.6439 209.91 11.3613C209.892 11.0697 209.837 10.7598 209.746 10.4316C209.655 10.1035 209.527 9.83464 209.363 9.625C209.208 9.40625 208.985 9.22852 208.693 9.0918C208.411 8.94596 208.074 8.87305 207.682 8.87305Z" fill="black"/>
<path d="M194.625 19.9883C195.491 19.9883 196.138 19.7878 196.566 19.3867C197.004 18.9857 197.223 18.3477 197.223 17.4727C197.223 16.5794 196.999 15.9004 196.553 15.4355C196.106 14.9616 195.464 14.7246 194.625 14.7246H193.326V19.9883H194.625ZM195.746 21H190.25V8.28516H193.326V13.7266H195.746C196.275 13.7266 196.79 13.7949 197.291 13.9316C197.792 14.0592 198.275 14.2643 198.74 14.5469C199.205 14.8203 199.579 15.2122 199.861 15.7227C200.153 16.224 200.299 16.8073 200.299 17.4727C200.299 18.138 200.158 18.7122 199.875 19.1953C199.592 19.6784 199.214 20.0475 198.74 20.3027C198.266 20.5488 197.783 20.7266 197.291 20.8359C196.799 20.9453 196.284 21 195.746 21Z" fill="black"/>
<path d="M184.166 14.6973C184.166 14.0775 184.152 13.5443 184.125 13.0977C184.107 12.6419 184.066 12.1816 184.002 11.7168C183.947 11.2428 183.861 10.8509 183.742 10.541C183.624 10.222 183.469 9.93034 183.277 9.66602C183.095 9.40169 182.863 9.21029 182.58 9.0918C182.298 8.96419 181.969 8.90039 181.596 8.90039C180.739 8.90039 180.01 9.35612 179.408 10.2676C178.807 11.1699 178.506 12.5189 178.506 14.3145V15.6543C178.506 17.1582 178.811 18.3249 179.422 19.1543C180.033 19.9746 180.757 20.3848 181.596 20.3848C181.988 20.3848 182.325 20.3255 182.607 20.207C182.899 20.0885 183.136 19.9017 183.318 19.6465C183.501 19.3913 183.651 19.1178 183.77 18.8262C183.888 18.5254 183.975 18.138 184.029 17.6641C184.084 17.181 184.12 16.7253 184.139 16.2969C184.157 15.8685 184.166 15.3353 184.166 14.6973ZM178.506 19.0996V26.1816H175.43V8.28516H178.506V10.3086C178.87 9.58854 179.372 9.00065 180.01 8.54492C180.657 8.08919 181.372 7.86133 182.156 7.86133C182.922 7.86133 183.61 8.0026 184.221 8.28516C184.84 8.56771 185.346 8.93685 185.738 9.39258C186.13 9.84831 186.458 10.3815 186.723 10.9922C186.987 11.6029 187.174 12.2135 187.283 12.8242C187.393 13.4349 187.447 14.0592 187.447 14.6973C187.447 15.554 187.338 16.3743 187.119 17.1582C186.91 17.9329 186.6 18.6439 186.189 19.291C185.779 19.9382 185.228 20.4577 184.535 20.8496C183.852 21.2324 183.077 21.4238 182.211 21.4238C181.464 21.4238 180.762 21.2096 180.105 20.7812C179.449 20.3438 178.916 19.7832 178.506 19.0996Z" fill="black"/>
<path d="M161.348 17.4727C161.348 16.3151 161.753 15.3581 162.564 14.6016C163.385 13.8451 164.456 13.4668 165.777 13.4668C166.415 13.4668 167.008 13.5625 167.555 13.7539C168.102 13.9453 168.535 14.2142 168.854 14.5605V12.0723C168.854 11.4434 168.767 10.8919 168.594 10.418C168.421 9.9349 168.188 9.56576 167.896 9.31055C167.614 9.05534 167.281 8.89583 166.898 8.83203C166.516 8.75911 166.119 8.79102 165.709 8.92773C165.308 9.06445 164.893 9.3151 164.465 9.67969C164.046 10.0443 163.663 10.5046 163.316 11.0605H162.305V9.26953C162.742 8.95052 163.285 8.67708 163.932 8.44922C164.579 8.21224 165.258 8.04362 165.969 7.94336C166.689 7.8431 167.404 7.8431 168.115 7.94336C168.826 8.04362 169.464 8.23958 170.029 8.53125C170.594 8.8138 171.055 9.26042 171.41 9.87109C171.766 10.4727 171.943 11.1973 171.943 12.0449V21H168.854V19.5508C168.498 20.0885 167.997 20.5352 167.35 20.8906C166.712 21.2461 166.01 21.4238 165.244 21.4238C164.105 21.4238 163.171 21.041 162.441 20.2754C161.712 19.5098 161.348 18.5755 161.348 17.4727ZM164.438 17.5C164.438 19.2956 165.025 20.1934 166.201 20.1934C166.857 20.1934 167.464 19.9518 168.02 19.4688C168.576 18.9857 168.854 18.4342 168.854 17.8145V16.3789C168.854 15.7682 168.607 15.2988 168.115 14.9707C167.632 14.6426 167.104 14.4785 166.529 14.4785C165.827 14.4785 165.303 14.7428 164.957 15.2715C164.611 15.791 164.438 16.5339 164.438 17.5Z" fill="black"/>
<path d="M152.311 8.28516V14H153.514L158.449 8.28516H159.926L156.07 12.6602L160.609 21H157.109L153.965 15.0117H152.311V21H149.234V8.28516H152.311Z" fill="black"/>
<path d="M139.104 18.2793C138.538 19.2546 137.827 20.0247 136.971 20.5898C136.114 21.1458 135.157 21.4238 134.1 21.4238C132.231 21.4238 130.768 20.7858 129.711 19.5098C128.663 18.2246 128.139 16.584 128.139 14.5879C128.139 12.6191 128.676 11.0059 129.752 9.74805C130.837 8.49023 132.286 7.86133 134.1 7.86133C135.758 7.86133 137.085 8.38542 138.078 9.43359C139.081 10.4727 139.582 11.8262 139.582 13.4941C139.582 13.8587 139.564 14.2233 139.527 14.5879H131.406C131.406 15.0892 131.415 15.5221 131.434 15.8867C131.452 16.2513 131.484 16.6797 131.529 17.1719C131.584 17.6641 131.671 18.0833 131.789 18.4297C131.917 18.7669 132.076 19.0951 132.268 19.4141C132.459 19.7331 132.71 19.9746 133.02 20.1387C133.329 20.3027 133.689 20.3848 134.1 20.3848C135.768 20.3848 137.158 19.4961 138.27 17.7188L139.104 18.2793ZM134.1 8.87305C133.544 8.87305 133.056 9.10547 132.637 9.57031C132.217 10.026 131.908 10.6048 131.707 11.3066C131.507 12.0085 131.406 12.765 131.406 13.5762H136.314C136.351 13.084 136.369 12.6738 136.369 12.3457C136.369 11.972 136.355 11.6439 136.328 11.3613C136.31 11.0697 136.255 10.7598 136.164 10.4316C136.073 10.1035 135.945 9.83464 135.781 9.625C135.626 9.40625 135.403 9.22852 135.111 9.0918C134.829 8.94596 134.492 8.87305 134.1 8.87305Z" fill="black"/>
<path d="M123.244 9.29688V21H120.168V9.29688H116.422V8.28516H127.004V9.29688H123.244Z" fill="black"/>
<path d="M113.141 3.74609C112.047 4.8125 110.516 5.3457 108.547 5.3457C106.578 5.3457 105.047 4.8125 103.953 3.74609L104.377 2.00977H105.102C105.421 2.77539 105.876 3.35872 106.469 3.75977C107.07 4.16081 107.763 4.36133 108.547 4.36133C109.331 4.36133 110.019 4.16081 110.611 3.75977C111.213 3.35872 111.673 2.77539 111.992 2.00977H112.717L113.141 3.74609ZM111.65 8.28516H114.18V21H111.09V11.1152L105.32 21H102.805V8.28516H105.881V18.1699L111.65 8.28516Z" fill="black"/>
<path d="M87.8066 14.5879C87.8066 13.3939 88.0573 12.2865 88.5586 11.2656C89.069 10.2448 89.7936 9.42448 90.7324 8.80469C91.6803 8.17578 92.7376 7.86133 93.9043 7.86133C95.6999 7.86133 97.1673 8.49479 98.3066 9.76172C99.446 11.0286 100.016 12.6374 100.016 14.5879C100.016 15.7819 99.7604 16.8984 99.25 17.9375C98.7396 18.9766 98.0104 19.8197 97.0625 20.4668C96.1237 21.1048 95.071 21.4238 93.9043 21.4238C92.1178 21.4238 90.6549 20.7767 89.5156 19.4824C88.3763 18.179 87.8066 16.5475 87.8066 14.5879ZM96.584 17.0352C96.6842 16.3333 96.7344 15.5176 96.7344 14.5879C96.7344 13.6582 96.6842 12.8516 96.584 12.168C96.4837 11.4753 96.3516 10.9238 96.1875 10.5137C96.0326 10.0944 95.8275 9.76172 95.5723 9.51562C95.3262 9.26042 95.071 9.0918 94.8066 9.00977C94.5423 8.91862 94.2415 8.87305 93.9043 8.87305C93.5671 8.87305 93.2663 8.91862 93.002 9.00977C92.7376 9.0918 92.4779 9.26042 92.2227 9.51562C91.9766 9.76172 91.7715 10.0944 91.6074 10.5137C91.4525 10.9238 91.3249 11.4753 91.2246 12.168C91.1243 12.8516 91.0742 13.6582 91.0742 14.5879C91.0742 15.5176 91.1243 16.3333 91.2246 17.0352C91.3249 17.7279 91.4525 18.2884 91.6074 18.7168C91.7715 19.1361 91.9766 19.4779 92.2227 19.7422C92.4779 19.9974 92.7376 20.1751 93.002 20.2754C93.2663 20.3665 93.5671 20.4121 93.9043 20.4121C94.2415 20.4121 94.5423 20.3665 94.8066 20.2754C95.071 20.1751 95.3262 19.9974 95.5723 19.7422C95.8275 19.4779 96.0326 19.1361 96.1875 18.7168C96.3516 18.2884 96.4837 17.7279 96.584 17.0352Z" fill="black"/>
<path d="M82.5566 14.6973C82.5566 14.0775 82.543 13.5443 82.5156 13.0977C82.4974 12.6419 82.4564 12.1816 82.3926 11.7168C82.3379 11.2428 82.2513 10.8509 82.1328 10.541C82.0143 10.222 81.8594 9.93034 81.668 9.66602C81.4857 9.40169 81.2533 9.21029 80.9707 9.0918C80.6882 8.96419 80.36 8.90039 79.9863 8.90039C79.1296 8.90039 78.4004 9.35612 77.7988 10.2676C77.1973 11.1699 76.8965 12.5189 76.8965 14.3145V15.6543C76.8965 17.1582 77.2018 18.3249 77.8125 19.1543C78.4232 19.9746 79.1478 20.3848 79.9863 20.3848C80.3783 20.3848 80.7155 20.3255 80.998 20.207C81.2897 20.0885 81.5267 19.9017 81.709 19.6465C81.8913 19.3913 82.0417 19.1178 82.1602 18.8262C82.2786 18.5254 82.3652 18.138 82.4199 17.6641C82.4746 17.181 82.5111 16.7253 82.5293 16.2969C82.5475 15.8685 82.5566 15.3353 82.5566 14.6973ZM76.8965 19.0996V26.1816H73.8203V8.28516H76.8965V10.3086C77.2611 9.58854 77.7624 9.00065 78.4004 8.54492C79.0475 8.08919 79.763 7.86133 80.5469 7.86133C81.3125 7.86133 82.0007 8.0026 82.6113 8.28516C83.2311 8.56771 83.737 8.93685 84.1289 9.39258C84.5208 9.84831 84.849 10.3815 85.1133 10.9922C85.3776 11.6029 85.5645 12.2135 85.6738 12.8242C85.7832 13.4349 85.8379 14.0592 85.8379 14.6973C85.8379 15.554 85.7285 16.3743 85.5098 17.1582C85.3001 17.9329 84.9902 18.6439 84.5801 19.291C84.1699 19.9382 83.6185 20.4577 82.9258 20.8496C82.2422 21.2324 81.4674 21.4238 80.6016 21.4238C79.8542 21.4238 79.1523 21.2096 78.4961 20.7812C77.8398 20.3438 77.3066 19.7832 76.8965 19.0996Z" fill="black"/>
<path d="M67.8184 9.29688V21H64.7422V9.29688H60.9961V8.28516H71.5781V9.29688H67.8184Z" fill="black"/>
<path d="M55.2949 8.90039C53.4993 8.90039 52.6016 10.7962 52.6016 14.5879C52.6016 15.0801 52.6107 15.5312 52.6289 15.9414C52.6562 16.3516 52.7018 16.7891 52.7656 17.2539C52.8294 17.7188 52.9251 18.1289 53.0527 18.4844C53.1895 18.8398 53.3535 19.168 53.5449 19.4688C53.7454 19.7604 53.9961 19.9883 54.2969 20.1523C54.6068 20.3073 54.9577 20.3848 55.3496 20.3848C56.7715 20.3848 57.9928 19.528 59.0137 17.8145L59.8887 18.2793C58.6855 20.3757 57.1725 21.4238 55.3496 21.4238C54.3014 21.4238 53.3854 21.2552 52.6016 20.918C51.8177 20.5807 51.1888 20.1068 50.7148 19.4961C50.25 18.8763 49.9036 18.1745 49.6758 17.3906C49.4479 16.5977 49.334 15.7181 49.334 14.752C49.334 12.61 49.8991 10.9284 51.0293 9.70703C52.1595 8.47656 53.5996 7.86133 55.3496 7.86133C56.6895 7.86133 58.0156 8.2168 59.3281 8.92773V11.1426H58.3164C57.806 9.64779 56.7988 8.90039 55.2949 8.90039Z" fill="black"/>
<path d="M35.1699 14.5879C35.1699 13.3939 35.4206 12.2865 35.9219 11.2656C36.4323 10.2448 37.1569 9.42448 38.0957 8.80469C39.0436 8.17578 40.1009 7.86133 41.2676 7.86133C43.0632 7.86133 44.5306 8.49479 45.6699 9.76172C46.8092 11.0286 47.3789 12.6374 47.3789 14.5879C47.3789 15.7819 47.1237 16.8984 46.6133 17.9375C46.1029 18.9766 45.3737 19.8197 44.4258 20.4668C43.487 21.1048 42.4342 21.4238 41.2676 21.4238C39.4811 21.4238 38.0182 20.7767 36.8789 19.4824C35.7396 18.179 35.1699 16.5475 35.1699 14.5879ZM43.9473 17.0352C44.0475 16.3333 44.0977 15.5176 44.0977 14.5879C44.0977 13.6582 44.0475 12.8516 43.9473 12.168C43.847 11.4753 43.7148 10.9238 43.5508 10.5137C43.3958 10.0944 43.1908 9.76172 42.9355 9.51562C42.6895 9.26042 42.4342 9.0918 42.1699 9.00977C41.9056 8.91862 41.6048 8.87305 41.2676 8.87305C40.9303 8.87305 40.6296 8.91862 40.3652 9.00977C40.1009 9.0918 39.8411 9.26042 39.5859 9.51562C39.3398 9.76172 39.1348 10.0944 38.9707 10.5137C38.8158 10.9238 38.6882 11.4753 38.5879 12.168C38.4876 12.8516 38.4375 13.6582 38.4375 14.5879C38.4375 15.5176 38.4876 16.3333 38.5879 17.0352C38.6882 17.7279 38.8158 18.2884 38.9707 18.7168C39.1348 19.1361 39.3398 19.4779 39.5859 19.7422C39.8411 19.9974 40.1009 20.1751 40.3652 20.2754C40.6296 20.3665 40.9303 20.4121 41.2676 20.4121C41.6048 20.4121 41.9056 20.3665 42.1699 20.2754C42.4342 20.1751 42.6895 19.9974 42.9355 19.7422C43.1908 19.4779 43.3958 19.1361 43.5508 18.7168C43.7148 18.2884 43.847 17.7279 43.9473 17.0352Z" fill="black"/>
<path d="M21.8535 2.24219V21H18.1895V1.23047H32.5176V21H28.8535V2.24219H21.8535Z" fill="black"/>
</svg>
