<svg width="552" height="15" viewBox="0 0 552 15" fill="none" xmlns="http://www.w3.org/2000/svg">
<g clip-path="url(#clip0_89_3084)">
<path d="M0.366937 11.8658H0.0263672V0.535435H1.3422V10.1301L8.89665 0.455078H9.23722V11.7854H7.92138V2.20686L0.366937 11.8658ZM16.6624 11.7854V8.07294H12.8697V11.7854H11.6313V4.55329H12.8697V7.84794H16.6624V4.55329H17.9008V11.7854H16.6624ZM22.6676 11.7854H21.4291V4.77829H21.0112C20.0823 4.77829 19.2464 5.13186 18.9368 5.35686L19.0606 4.55329H25.067L24.9432 5.35686C24.5097 4.97115 23.8596 4.77829 22.9617 4.77829H22.6676V11.7854ZM25.9325 4.55329H27.0781C27.14 5.01936 27.1709 5.63008 27.1709 5.63008C27.7592 4.89079 28.6261 4.39258 29.7252 4.39258C31.6138 4.39258 32.9451 5.83901 32.9451 7.91222C32.9451 10.3712 31.3197 11.9462 29.3072 11.9462C28.2855 11.9462 27.6818 11.689 27.1709 11.2551V14.9997H25.9325V4.55329ZM29.0286 4.85865C28.2236 4.85865 27.6818 5.24436 27.1709 5.91936V10.9337C27.6353 11.464 28.3165 11.7051 28.9667 11.7051C30.654 11.7051 31.6293 10.3551 31.6293 8.13722C31.6293 5.93544 30.3909 4.85865 29.0286 4.85865ZM34.642 5.71044L34.5337 5.58186C35.091 4.90686 36.0662 4.39258 37.3047 4.39258C38.9146 4.39258 39.6267 5.22829 39.6267 6.86758V11.7854H38.4812C38.4193 11.2872 38.4038 10.8533 38.3883 10.3712C38.1716 11.1104 37.5988 11.8979 36.2211 11.8979C34.8897 11.8979 34.0228 11.1265 34.0228 9.88901C34.0228 8.41044 35.1529 7.84794 36.6545 7.84794C37.4595 7.84794 38.0168 8.02472 38.3883 8.21758V7.23722C38.3883 5.67829 38.0013 4.74615 36.639 4.74615C35.7876 4.74615 35.06 5.18008 34.642 5.71044ZM36.7938 11.5444C37.6452 11.5444 38.249 10.6283 38.3883 9.92115V8.44258C38.0632 8.23365 37.5833 8.08901 36.9796 8.08901C36.2365 8.08901 35.3387 8.45865 35.3387 9.82472C35.3387 10.8533 35.7876 11.5444 36.7938 11.5444ZM46.7464 11.7854V8.07294H42.9537V11.7854H41.7153V4.55329H42.9537V7.84794H46.7464V4.55329H47.9848V11.7854H46.7464ZM55.7549 10.5479L55.8942 10.7408C55.1047 11.7854 54.052 11.9462 53.1232 11.9462C50.9559 11.9462 49.6091 10.5479 49.6091 8.15329C49.6091 6.17651 50.8785 4.39258 53.1851 4.39258C55.2905 4.39258 56.3741 5.80686 56.3741 7.60686C56.3741 7.86401 56.3586 7.99258 56.3431 8.13722H50.9249C50.9249 10.0497 51.8848 11.6247 53.5721 11.6247C54.4081 11.6247 55.244 11.2872 55.7549 10.5479ZM50.9249 7.91222H55.0428C55.0583 7.71936 55.0737 7.54258 55.0737 7.25329C55.0737 5.42115 54.3307 4.63365 53.1851 4.63365C51.8693 4.63365 50.9094 5.64615 50.9249 7.91222ZM60.4614 11.7854H59.223V4.77829H58.805C57.8762 4.77829 57.0403 5.13186 56.7307 5.35686L56.8545 4.55329H62.8609L62.7371 5.35686C62.3036 4.97115 61.6534 4.77829 60.7556 4.77829H60.4614V11.7854ZM64.0611 7.54258V7.28544H67.761V7.54258H64.0611ZM73.6626 11.7854V4.77829H71.3251C71.2322 7.67115 70.9071 11.8819 68.8482 11.8819C68.8018 11.8819 68.7553 11.8819 68.6315 11.8658V10.5962C68.7244 10.6283 68.8792 10.6604 69.0804 10.6604C70.1331 10.6604 70.9071 9.80865 70.9071 7.33365C70.9071 6.24079 70.6285 5.22829 70.3343 4.55329H74.9011V11.7854H73.6626ZM77.3852 11.8658H77.0755V4.55329H78.314V10.339L83.1129 4.47294H83.4225V11.7854H82.1841V5.99972L77.3852 11.8658ZM84.534 13.9551H84.3173L84.4721 11.5604H85.308C86.2988 10.0979 86.5774 8.12115 86.5774 6.86758C86.5774 6.08008 86.3917 5.19615 85.9118 4.55329H90.6023V11.5604H91.6395L91.4847 13.9551H91.268L91.0203 11.7854H85.0603L84.534 13.9551ZM89.3639 11.5604V4.77829H86.918C86.9335 6.99615 86.7477 9.71222 85.5867 11.5604H89.3639ZM98.5526 10.5479L98.6919 10.7408C97.9024 11.7854 96.8497 11.9462 95.9209 11.9462C93.7536 11.9462 92.4068 10.5479 92.4068 8.15329C92.4068 6.17651 93.6762 4.39258 95.9828 4.39258C98.0882 4.39258 99.1718 5.80686 99.1718 7.60686C99.1718 7.86401 99.1563 7.99258 99.1408 8.13722H93.7227C93.7227 10.0497 94.6825 11.6247 96.3698 11.6247C97.2058 11.6247 98.0417 11.2872 98.5526 10.5479ZM93.7227 7.91222H97.8405C97.8559 7.71936 97.8714 7.54258 97.8714 7.25329C97.8714 5.42115 97.1284 4.63365 95.9828 4.63365C94.667 4.63365 93.7072 5.64615 93.7227 7.91222ZM100.795 4.55329H101.94C102.002 5.01936 102.033 5.63008 102.033 5.63008C102.621 4.89079 103.488 4.39258 104.587 4.39258C106.476 4.39258 107.807 5.83901 107.807 7.91222C107.807 10.3712 106.182 11.9462 104.169 11.9462C103.148 11.9462 102.544 11.689 102.033 11.2551V14.9997H100.795V4.55329ZM103.891 4.85865C103.086 4.85865 102.544 5.24436 102.033 5.91936V10.9337C102.498 11.464 103.179 11.7051 103.829 11.7051C105.516 11.7051 106.491 10.3551 106.491 8.13722C106.491 5.93544 105.253 4.85865 103.891 4.85865ZM112.904 11.7854V4.55329H117.254L117.13 5.29258C116.743 5.09972 115.799 4.77829 114.591 4.77829H114.142V11.7854H112.904ZM118.032 8.16936C118.032 5.99972 119.595 4.39258 121.824 4.39258C124.053 4.39258 125.617 5.99972 125.617 8.16936C125.617 10.339 124.053 11.9462 121.824 11.9462C119.595 11.9462 118.032 10.339 118.032 8.16936ZM119.347 7.86401C119.347 9.50329 119.967 11.7051 121.917 11.7051C123.512 11.7051 124.301 10.2587 124.301 8.45865C124.301 6.81936 123.651 4.63365 121.7 4.63365C120.152 4.63365 119.347 6.09615 119.347 7.86401ZM125.911 13.9551H125.694L125.849 11.5604H126.685C127.675 10.0979 127.954 8.12115 127.954 6.86758C127.954 6.08008 127.768 5.19615 127.288 4.55329H131.979V11.5604H133.016L132.861 13.9551H132.645L132.397 11.7854H126.437L125.911 13.9551ZM130.741 11.5604V4.77829H128.295C128.31 6.99615 128.124 9.71222 126.963 11.5604H130.741ZM134.403 5.71044L134.295 5.58186C134.852 4.90686 135.827 4.39258 137.066 4.39258C138.676 4.39258 139.388 5.22829 139.388 6.86758V11.7854H138.242C138.18 11.2872 138.165 10.8533 138.149 10.3712C137.933 11.1104 137.36 11.8979 135.982 11.8979C134.651 11.8979 133.784 11.1265 133.784 9.88901C133.784 8.41044 134.914 7.84794 136.416 7.84794C137.221 7.84794 137.778 8.02472 138.149 8.21758V7.23722C138.149 5.67829 137.762 4.74615 136.4 4.74615C135.549 4.74615 134.821 5.18008 134.403 5.71044ZM136.555 11.5444C137.406 11.5444 138.01 10.6283 138.149 9.92115V8.44258C137.824 8.23365 137.344 8.08901 136.741 8.08901C135.998 8.08901 135.1 8.45865 135.1 9.82472C135.1 10.8533 135.549 11.5444 136.555 11.5444Z" fill="black"/>
<path opacity="0.4" d="M142.98 7H142.277V2.51953C142.108 2.68099 141.885 2.84245 141.609 3.00391C141.336 3.16536 141.09 3.28646 140.871 3.36719V2.6875C141.264 2.5026 141.608 2.27865 141.902 2.01562C142.197 1.7526 142.405 1.4974 142.527 1.25H142.98V7Z" fill="#282828"/>
</g>
<g clip-path="url(#clip1_89_3084)">
<path d="M157.181 1.38754L157.336 0.535752H165.936L165.766 1.38754C165.301 1.09825 164.355 0.776824 162.728 0.776824H162.294V11.7858H160.977V0.776824H160.218C158.56 0.776824 157.553 1.19468 157.181 1.38754ZM166.28 6.16075C166.28 2.89825 168.589 0.375038 171.968 0.375038C175.268 0.375038 177.655 2.73754 177.655 6.20897C177.655 9.50361 175.113 11.9465 171.968 11.9465C168.667 11.9465 166.28 9.58397 166.28 6.16075ZM167.675 6.20897C167.675 9.10182 169.519 11.7054 172.153 11.7054C174.943 11.7054 176.26 9.08575 176.26 6.16075C176.26 2.96254 174.4 0.61611 171.766 0.61611C169.101 0.61611 167.675 3.10718 167.675 6.20897ZM187.107 11.7858V0.792896H181.064V11.7858H179.746V0.535752H188.424V11.7858H187.107ZM190.911 7.54289V7.28575H194.614V7.54289H190.911ZM199.801 11.9465C197.678 11.9465 196.701 10.6608 196.314 9.3429L196.453 9.27861C196.949 10.6608 198.096 11.2393 199.429 11.2393C200.591 11.2393 201.846 10.4518 201.846 8.70004C201.846 7.25361 200.854 6.12861 199.429 6.12861H198.468V5.90361H199.196C200.296 5.90361 201.35 5.14825 201.35 3.39647C201.35 1.93397 200.312 1.14647 199.057 1.14647C198.003 1.14647 197.058 1.82147 196.732 3.01075L196.577 2.96254C196.872 1.66075 197.926 0.375038 199.801 0.375038C201.412 0.375038 202.59 1.45182 202.59 3.01075C202.59 4.44111 201.691 5.5179 200.126 5.90361V5.91968C201.986 6.01611 203.163 7.15718 203.163 8.82861C203.163 10.6929 201.815 11.9465 199.801 11.9465ZM208.615 11.7858V4.55361C209.22 4.52147 210.072 4.48932 211.079 4.48932C213.187 4.48932 213.977 5.22861 213.977 6.1929C213.977 7.23754 213.063 7.78397 212.133 7.92861V7.96075C213.76 8.08932 214.38 8.87682 214.38 9.72861C214.38 11.0625 213.342 11.85 211.172 11.85C210.305 11.85 209.251 11.7858 208.615 11.7858ZM211.049 8.15361H209.855V11.5768C210.227 11.5929 210.491 11.625 211.064 11.625C212.025 11.625 213.063 11.2554 213.063 9.84111C213.063 8.7804 212.35 8.15361 211.049 8.15361ZM210.754 4.71432C210.196 4.71432 210.041 4.74647 209.855 4.76254V7.92861H211.11C212.366 7.92861 212.769 7.14111 212.769 6.33754C212.769 5.16432 211.963 4.71432 210.754 4.71432ZM227.164 11.7858V0.792896H221.121V11.7858H219.803V0.535752H228.481V11.7858H227.164ZM230.89 4.55361H232.037C232.099 5.01968 232.13 5.6304 232.13 5.6304C232.719 4.89111 233.587 4.3929 234.687 4.3929C236.577 4.3929 237.91 5.83932 237.91 7.91254C237.91 10.3715 236.283 11.9465 234.268 11.9465C233.246 11.9465 232.641 11.6893 232.13 11.2554V15H230.89V4.55361ZM233.99 4.85897C233.184 4.85897 232.641 5.24468 232.13 5.91968V10.934C232.595 11.4643 233.277 11.7054 233.928 11.7054C235.617 11.7054 236.593 10.3554 236.593 8.13754C236.593 5.93575 235.353 4.85897 233.99 4.85897ZM245.141 10.5483L245.281 10.7411C244.49 11.7858 243.437 11.9465 242.507 11.9465C240.337 11.9465 238.989 10.5483 238.989 8.15361C238.989 6.17682 240.26 4.3929 242.569 4.3929C244.676 4.3929 245.761 5.80718 245.761 7.60718C245.761 7.86432 245.745 7.99289 245.73 8.13754H240.306C240.306 10.05 241.267 11.625 242.956 11.625C243.793 11.625 244.63 11.2875 245.141 10.5483ZM240.306 7.91254H244.428C244.444 7.71968 244.459 7.5429 244.459 7.25361C244.459 5.42147 243.715 4.63397 242.569 4.63397C241.252 4.63397 240.291 5.64647 240.306 7.91254ZM247.447 7.89647V4.47325H247.959L251.182 8.41075L254.126 4.47325H254.436V11.7858H253.197V6.09647L250.624 9.51968H250.469L247.664 6.09647V7.89647C247.664 9.58397 247.804 11.0786 247.881 11.7858H247.231C247.324 11.1268 247.447 9.55182 247.447 7.89647ZM256.912 11.8661H256.602V4.55361H257.841V10.3393L262.645 4.47325H262.955V11.7858H261.715V6.00004L256.912 11.8661ZM265.431 11.8661H265.121V4.55361H266.361V10.3393L271.165 4.47325H271.475V11.7858H270.235V6.00004L265.431 11.8661ZM284.947 11.7858V5.9679H278.671V11.7858H277.354V0.535752H278.671V5.72682H284.947V0.535752H286.264V11.7858H284.947ZM290.218 11.7858H288.901V0.535752C289.505 0.519681 291.349 0.503609 291.659 0.503609C294.619 0.503609 295.518 2.07861 295.518 3.7179C295.518 5.46968 294.262 6.32147 293.286 6.57861L296.928 11.7858H295.347L291.907 6.77147H290.218V11.7858ZM290.218 0.808967V6.5304H291.163C292.945 6.5304 294.123 5.61432 294.123 3.76611C294.123 1.9179 292.992 0.744681 291.163 0.744681C290.714 0.744681 290.636 0.760753 290.218 0.808967ZM308.797 7.54289V7.28575H312.5V7.54289H308.797ZM321.421 0.342896L321.545 0.439324L320.77 1.50004C320.383 2.0304 319.67 2.11075 319.066 2.1429C318.198 2.19111 316.695 2.04647 316.168 2.8179C315.657 3.54111 315.486 5.32504 315.455 5.98397H315.486C315.966 5.38932 316.927 4.63397 318.306 4.63397C320.305 4.63397 321.576 6.06432 321.576 8.23397C321.576 10.259 320.057 11.9465 317.934 11.9465C315.641 11.9465 314.277 10.2268 314.277 7.44647C314.277 5.38932 314.99 3.50897 316.199 2.35182C317.268 1.32325 318.26 1.08218 320.321 0.857181C320.894 0.792896 321.096 0.664324 321.421 0.342896ZM315.517 6.32147C315.409 7.94468 315.827 11.7054 318.058 11.7054C319.593 11.7054 320.259 10.1947 320.259 8.34647C320.259 6.6429 319.438 5.03575 317.687 5.03575C316.602 5.03575 315.811 5.75897 315.517 6.32147ZM323.202 4.55361H324.348C324.41 5.01968 324.441 5.6304 324.441 5.6304C325.03 4.89111 325.898 4.3929 326.998 4.3929C328.889 4.3929 330.221 5.83932 330.221 7.91254C330.221 10.3715 328.594 11.9465 326.58 11.9465C325.557 11.9465 324.953 11.6893 324.441 11.2554V15H323.202V4.55361ZM326.301 4.85897C325.495 4.85897 324.953 5.24468 324.441 5.91968V10.934C324.906 11.4643 325.588 11.7054 326.239 11.7054C327.928 11.7054 328.904 10.3554 328.904 8.13754C328.904 5.93575 327.665 4.85897 326.301 4.85897ZM337.452 10.5483L337.592 10.7411C336.802 11.7858 335.748 11.9465 334.818 11.9465C332.649 11.9465 331.3 10.5483 331.3 8.15361C331.3 6.17682 332.571 4.3929 334.88 4.3929C336.988 4.3929 338.072 5.80718 338.072 7.60718C338.072 7.86432 338.057 7.99289 338.041 8.13754H332.618C332.618 10.05 333.578 11.625 335.267 11.625C336.104 11.625 336.941 11.2875 337.452 10.5483ZM332.618 7.91254H336.74C336.755 7.71968 336.771 7.5429 336.771 7.25361C336.771 5.42147 336.027 4.63397 334.88 4.63397C333.563 4.63397 332.602 5.64647 332.618 7.91254ZM344.733 11.7858V8.07325H340.936V11.7858H339.697V4.55361H340.936V7.84825H344.733V4.55361H345.973V11.7858H344.733ZM347.087 13.9554H346.87L347.025 11.5608H347.862C348.853 10.0983 349.132 8.12147 349.132 6.8679C349.132 6.08039 348.946 5.19647 348.466 4.55361H353.161V11.5608H354.2L354.045 13.9554H353.828L353.58 11.7858H347.614L347.087 13.9554ZM351.922 11.5608V4.77861H349.473C349.489 6.99647 349.303 9.71254 348.141 11.5608H351.922Z" fill="black"/>
<path opacity="0.4" d="M302.027 5.32422V6H298.242C298.237 5.83073 298.264 5.66797 298.324 5.51172C298.421 5.25391 298.574 5 298.785 4.75C298.999 4.5 299.306 4.21094 299.707 3.88281C300.329 3.3724 300.75 2.96875 300.969 2.67188C301.188 2.3724 301.297 2.08984 301.297 1.82422C301.297 1.54557 301.197 1.3112 300.996 1.12109C300.798 0.928385 300.539 0.832031 300.219 0.832031C299.88 0.832031 299.609 0.933594 299.406 1.13672C299.203 1.33984 299.1 1.62109 299.098 1.98047L298.375 1.90625C298.424 1.36719 298.611 0.957031 298.934 0.675781C299.257 0.391927 299.69 0.25 300.234 0.25C300.784 0.25 301.219 0.402344 301.539 0.707031C301.859 1.01172 302.02 1.38932 302.02 1.83984C302.02 2.06901 301.973 2.29427 301.879 2.51562C301.785 2.73698 301.629 2.97005 301.41 3.21484C301.194 3.45964 300.833 3.79557 300.328 4.22266C299.906 4.57682 299.635 4.81771 299.516 4.94531C299.396 5.07031 299.297 5.19661 299.219 5.32422H302.027Z" fill="#282828"/>
</g>
<g clip-path="url(#clip2_89_3084)">
<path d="M379.138 11.7858V0.776839H375.574C375.42 8.00898 374.17 11.8179 372.658 11.8179C372.52 11.8179 372.396 11.8018 372.288 11.7697L372.304 10.259C372.412 10.3072 372.535 10.3233 372.658 10.3233C374.386 10.3233 375.189 6.56255 375.189 3.68577C375.189 2.35184 374.911 1.25898 374.464 0.535767H380.45V11.7858H379.138ZM383.153 11.8661H382.844V4.55362H384.079V10.3393L388.862 4.47327H389.17V11.7858H387.936V6.00005L383.153 11.8661ZM390.278 13.9554H390.062L390.216 11.5608H391.049C392.037 10.0983 392.315 8.12148 392.315 6.86791C392.315 6.08041 392.129 5.19648 391.651 4.55362H396.326V11.5608H397.36L397.205 13.9554H396.989L396.743 11.7858H390.803L390.278 13.9554ZM395.092 11.5608V4.77862H392.654C392.669 6.99648 392.484 9.71255 391.327 11.5608H395.092ZM404.25 10.5483L404.389 10.7411C403.602 11.7858 402.553 11.9465 401.627 11.9465C399.467 11.9465 398.125 10.5483 398.125 8.15362C398.125 6.17684 399.39 4.39291 401.689 4.39291C403.787 4.39291 404.867 5.8072 404.867 7.6072C404.867 7.86434 404.852 7.99291 404.836 8.13755H399.436C399.436 10.0501 400.393 11.6251 402.074 11.6251C402.908 11.6251 403.741 11.2876 404.25 10.5483ZM399.436 7.91255H403.54C403.556 7.7197 403.571 7.54291 403.571 7.25362C403.571 5.42148 402.83 4.63398 401.689 4.63398C400.377 4.63398 399.421 5.64648 399.436 7.91255ZM406.485 4.55362H407.626C407.688 5.0197 407.719 5.63041 407.719 5.63041C408.305 4.89112 409.169 4.39291 410.265 4.39291C412.147 4.39291 413.474 5.83934 413.474 7.91255C413.474 10.3715 411.854 11.9465 409.848 11.9465C408.83 11.9465 408.228 11.6893 407.719 11.2554V15.0001H406.485V4.55362ZM409.57 4.85898C408.768 4.85898 408.228 5.2447 407.719 5.9197V10.934C408.182 11.4643 408.861 11.7054 409.509 11.7054C411.19 11.7054 412.162 10.3554 412.162 8.13755C412.162 5.93577 410.928 4.85898 409.57 4.85898ZM418.553 4.55362H419.695C419.757 5.0197 419.787 5.63041 419.787 5.63041C420.374 4.89112 421.238 4.39291 422.333 4.39291C424.216 4.39291 425.542 5.83934 425.542 7.91255C425.542 10.3715 423.922 11.9465 421.917 11.9465C420.898 11.9465 420.297 11.6893 419.787 11.2554V15.0001H418.553V4.55362ZM421.639 4.85898C420.837 4.85898 420.297 5.2447 419.787 5.9197V10.934C420.25 11.4643 420.929 11.7054 421.577 11.7054C423.259 11.7054 424.231 10.3554 424.231 8.13755C424.231 5.93577 422.997 4.85898 421.639 4.85898ZM426.616 8.1697C426.616 6.00005 428.174 4.39291 430.396 4.39291C432.618 4.39291 434.176 6.00005 434.176 8.1697C434.176 10.3393 432.618 11.9465 430.396 11.9465C428.174 11.9465 426.616 10.3393 426.616 8.1697ZM427.928 7.86434C427.928 9.50362 428.545 11.7054 430.489 11.7054C432.078 11.7054 432.865 10.259 432.865 8.45898C432.865 6.8197 432.217 4.63398 430.273 4.63398C428.73 4.63398 427.928 6.09648 427.928 7.86434ZM441.499 10.5483L441.637 10.7411C441.051 11.5286 440.172 11.9465 439.061 11.9465C436.762 11.9465 435.25 10.6286 435.25 8.1697C435.25 6.0322 436.731 4.39291 438.907 4.39291C439.987 4.39291 440.912 4.71434 441.452 5.14827L441.221 5.88755C440.789 5.16434 440.048 4.63398 439.123 4.63398C437.765 4.63398 436.561 5.59827 436.561 7.99291C436.561 10.3715 437.842 11.6251 439.601 11.6251C440.372 11.6251 441.159 11.1268 441.499 10.5483ZM445.674 11.7858H444.44V4.77862H444.023C443.098 4.77862 442.264 5.1322 441.956 5.3572L442.079 4.55362H448.066L447.942 5.3572C447.51 4.97148 446.862 4.77862 445.967 4.77862H445.674V11.7858ZM449.005 5.71077L448.897 5.5822C449.453 4.9072 450.425 4.39291 451.659 4.39291C453.263 4.39291 453.973 5.22862 453.973 6.86791V11.7858H452.831C452.77 11.2876 452.754 10.8536 452.739 10.3715C452.523 11.1108 451.952 11.8983 450.579 11.8983C449.252 11.8983 448.388 11.1268 448.388 9.88934C448.388 8.41077 449.514 7.84827 451.011 7.84827C451.813 7.84827 452.369 8.02505 452.739 8.21791V7.23755C452.739 5.67862 452.353 4.74648 450.995 4.74648C450.147 4.74648 449.422 5.18041 449.005 5.71077ZM451.15 11.5447C451.998 11.5447 452.6 10.6286 452.739 9.92148V8.44291C452.415 8.23398 451.937 8.08934 451.335 8.08934C450.594 8.08934 449.699 8.45898 449.699 9.82505C449.699 10.8536 450.147 11.5447 451.15 11.5447ZM456.595 5.26077C456.595 4.84291 456.934 4.40898 457.474 4.40898C457.953 4.40898 458.292 4.84291 458.292 5.26077C458.292 5.74291 457.953 6.17684 457.474 6.17684C456.934 6.17684 456.595 5.74291 456.595 5.26077ZM456.595 10.9179C456.595 10.5001 456.934 10.0661 457.474 10.0661C457.953 10.0661 458.292 10.5001 458.292 10.9179C458.292 11.4001 457.953 11.834 457.474 11.834C456.934 11.834 456.595 11.4001 456.595 10.9179ZM469.322 11.7858V4.7947H465.697V11.7858H464.462V4.55362H470.557V11.7858H469.322ZM472.719 4.55362H473.861C473.922 5.0197 473.953 5.63041 473.953 5.63041C474.539 4.89112 475.403 4.39291 476.499 4.39291C478.381 4.39291 479.708 5.83934 479.708 7.91255C479.708 10.3715 478.088 11.9465 476.082 11.9465C475.064 11.9465 474.462 11.6893 473.953 11.2554V15.0001H472.719V4.55362ZM475.805 4.85898C475.002 4.85898 474.462 5.2447 473.953 5.9197V10.934C474.416 11.4643 475.095 11.7054 475.743 11.7054C477.425 11.7054 478.397 10.3554 478.397 8.13755C478.397 5.93577 477.162 4.85898 475.805 4.85898ZM480.782 8.1697C480.782 6.00005 482.341 4.39291 484.562 4.39291C486.784 4.39291 488.342 6.00005 488.342 8.1697C488.342 10.3393 486.784 11.9465 484.562 11.9465C482.341 11.9465 480.782 10.3393 480.782 8.1697ZM482.094 7.86434C482.094 9.50362 482.711 11.7054 484.655 11.7054C486.244 11.7054 487.031 10.259 487.031 8.45898C487.031 6.8197 486.383 4.63398 484.439 4.63398C482.896 4.63398 482.094 6.09648 482.094 7.86434ZM489.956 4.55362H491.097C491.159 5.0197 491.19 5.63041 491.19 5.63041C491.776 4.89112 492.64 4.39291 493.736 4.39291C495.618 4.39291 496.945 5.83934 496.945 7.91255C496.945 10.3715 495.325 11.9465 493.319 11.9465C492.301 11.9465 491.699 11.6893 491.19 11.2554V15.0001H489.956V4.55362ZM493.041 4.85898C492.239 4.85898 491.699 5.2447 491.19 5.9197V10.934C491.653 11.4643 492.332 11.7054 492.98 11.7054C494.661 11.7054 495.633 10.3554 495.633 8.13755C495.633 5.93577 494.399 4.85898 493.041 4.85898ZM504.668 11.7858V4.55362H505.903V11.7858H504.668ZM498.559 11.7858V4.55362H499.793V7.31791C499.793 7.31791 500.209 7.22148 500.888 7.22148C502.909 7.22148 503.712 8.10541 503.712 9.42327C503.712 10.5483 502.925 11.7858 500.703 11.7858H498.559ZM499.793 11.5608H500.657C501.891 11.5608 502.4 10.7893 502.4 9.53577C502.4 8.31434 501.907 7.44648 500.456 7.44648C500.086 7.44648 499.885 7.51077 499.793 7.54291V11.5608ZM508.097 11.7858V4.55362C508.699 4.52148 509.547 4.48934 510.55 4.48934C512.648 4.48934 513.435 5.22862 513.435 6.19291C513.435 7.23755 512.525 7.78398 511.599 7.92862V7.96077C513.219 8.08934 513.837 8.87684 513.837 9.72862C513.837 11.0626 512.803 11.8501 510.643 11.8501C509.779 11.8501 508.73 11.7858 508.097 11.7858ZM510.519 8.15362H509.331V11.5768C509.702 11.5929 509.964 11.6251 510.535 11.6251C511.491 11.6251 512.525 11.2554 512.525 9.84112C512.525 8.78041 511.815 8.15362 510.519 8.15362ZM510.226 4.71434C509.671 4.71434 509.516 4.74648 509.331 4.76255V7.92862H510.581C511.831 7.92862 512.232 7.14112 512.232 6.33755C512.232 5.16434 511.43 4.71434 510.226 4.71434ZM519.005 11.7858V4.55362H523.34L523.217 5.29291C522.831 5.10005 521.89 4.77862 520.686 4.77862H520.239V11.7858H519.005ZM524.115 8.1697C524.115 6.00005 525.673 4.39291 527.895 4.39291C530.117 4.39291 531.675 6.00005 531.675 8.1697C531.675 10.3393 530.117 11.9465 527.895 11.9465C525.673 11.9465 524.115 10.3393 524.115 8.1697ZM525.426 7.86434C525.426 9.50362 526.044 11.7054 527.988 11.7054C529.577 11.7054 530.364 10.259 530.364 8.45898C530.364 6.8197 529.716 4.63398 527.772 4.63398C526.229 4.63398 525.426 6.09648 525.426 7.86434ZM531.968 13.9554H531.752L531.906 11.5608H532.739C533.727 10.0983 534.004 8.12148 534.004 6.86791C534.004 6.08041 533.819 5.19648 533.341 4.55362H538.016V11.5608H539.049L538.895 13.9554H538.679L538.432 11.7858H532.492L531.968 13.9554ZM536.781 11.5608V4.77862H534.344C534.359 6.99648 534.174 9.71255 533.017 11.5608H536.781ZM540.432 5.71077L540.324 5.5822C540.879 4.9072 541.851 4.39291 543.085 4.39291C544.69 4.39291 545.4 5.22862 545.4 6.86791V11.7858H544.258C544.196 11.2876 544.181 10.8536 544.165 10.3715C543.949 11.1108 543.379 11.8983 542.005 11.8983C540.679 11.8983 539.815 11.1268 539.815 9.88934C539.815 8.41077 540.941 7.84827 542.437 7.84827C543.24 7.84827 543.795 8.02505 544.165 8.21791V7.23755C544.165 5.67862 543.78 4.74648 542.422 4.74648C541.573 4.74648 540.848 5.18041 540.432 5.71077ZM542.576 11.5447C543.425 11.5447 544.027 10.6286 544.165 9.92148V8.44291C543.841 8.23398 543.363 8.08934 542.761 8.08934C542.021 8.08934 541.126 8.45898 541.126 9.82505C541.126 10.8536 541.573 11.5447 542.576 11.5447Z" fill="black"/>
<path opacity="0.4" d="M547.336 6.48828L548.039 6.39453C548.12 6.79297 548.257 7.08073 548.449 7.25781C548.645 7.43229 548.882 7.51953 549.16 7.51953C549.491 7.51953 549.77 7.40495 549.996 7.17578C550.225 6.94661 550.34 6.66276 550.34 6.32422C550.34 6.0013 550.234 5.73568 550.023 5.52734C549.812 5.31641 549.544 5.21094 549.219 5.21094C549.086 5.21094 548.921 5.23698 548.723 5.28906L548.801 4.67188C548.848 4.67708 548.885 4.67969 548.914 4.67969C549.214 4.67969 549.483 4.60156 549.723 4.44531C549.962 4.28906 550.082 4.04818 550.082 3.72266C550.082 3.46484 549.995 3.2513 549.82 3.08203C549.646 2.91276 549.421 2.82812 549.145 2.82812C548.871 2.82812 548.643 2.91406 548.461 3.08594C548.279 3.25781 548.161 3.51562 548.109 3.85938L547.406 3.73438C547.492 3.26302 547.688 2.89844 547.992 2.64062C548.297 2.38021 548.676 2.25 549.129 2.25C549.441 2.25 549.729 2.31771 549.992 2.45312C550.255 2.58594 550.456 2.76823 550.594 3C550.734 3.23177 550.805 3.47786 550.805 3.73828C550.805 3.98568 550.738 4.21094 550.605 4.41406C550.473 4.61719 550.276 4.77865 550.016 4.89844C550.354 4.97656 550.617 5.13932 550.805 5.38672C550.992 5.63151 551.086 5.9388 551.086 6.30859C551.086 6.80859 550.904 7.23307 550.539 7.58203C550.174 7.92839 549.714 8.10156 549.156 8.10156C548.654 8.10156 548.236 7.95182 547.902 7.65234C547.572 7.35286 547.383 6.96484 547.336 6.48828Z" fill="#282828"/>
</g>
<defs>
<clipPath id="clip0_89_3084">
<rect width="145" height="15" fill="white"/>
</clipPath>
<clipPath id="clip1_89_3084">
<rect width="203" height="15" fill="white" transform="translate(157)"/>
</clipPath>
<clipPath id="clip2_89_3084">
<rect width="180" height="15" fill="white" transform="translate(372)"/>
</clipPath>
</defs>
</svg>
