<svg width="554" height="61" viewBox="0 0 554 61" fill="none" xmlns="http://www.w3.org/2000/svg">
<g clip-path="url(#clip0_173_8503)">
<path d="M9.50512 29.5667C4.06407 29.5667 1.56198 26.3667 0.569092 23.0867L0.926531 22.9267C2.19743 26.3667 5.1364 27.8067 8.55194 27.8067C11.5306 27.8067 14.7476 25.8467 14.7476 21.4867C14.7476 17.8867 12.2058 15.0867 8.55194 15.0867H6.08958V14.5267H7.95622C10.776 14.5267 13.4767 12.6467 13.4767 8.28673C13.4767 4.64673 10.8157 2.68673 7.59877 2.68673C4.89811 2.68673 2.47544 4.36672 1.64141 7.32673L1.24426 7.20672C1.99886 3.96672 4.69953 0.766724 9.50512 0.766724C13.6356 0.766724 16.654 3.44672 16.654 7.32673C16.654 10.8867 14.3504 13.5667 10.3392 14.5267V14.5667C15.105 14.8067 18.1234 17.6467 18.1234 21.8067C18.1234 26.4467 14.6682 29.5667 9.50512 29.5667ZM22.104 29.1667V28.5667C26.8302 23.1667 34.5351 16.2467 34.5351 9.60672C34.5351 5.48673 31.8741 3.56673 29.0146 3.56673C26.0359 3.56673 23.6132 5.56672 22.9381 8.68672H22.6203C22.8586 3.48673 25.9167 0.846725 30.206 0.846725C35.4088 0.846725 37.9109 4.28672 37.9109 7.76672C37.9109 14.1267 28.7366 22.3667 24.9238 26.1667H38.8244V29.1667H22.104ZM52.3655 15.1667C52.3655 6.76673 55.1059 0.846725 61.381 0.846725C67.6561 0.846725 70.3965 6.76673 70.3965 15.1667C70.3965 23.6067 67.7355 29.4867 61.4604 29.4867C55.1853 29.4867 52.3655 23.6067 52.3655 15.1667ZM55.7414 15.1667C55.9796 22.3667 57.3697 28.8867 61.8973 28.8867C66.5043 28.8867 67.2589 22.4067 67.0206 15.1667C66.7029 7.92673 65.5511 1.40673 60.8647 1.40673C56.1782 1.40673 55.4236 8.00673 55.7414 15.1667ZM74.7832 15.1667C74.7832 6.76673 77.5236 0.846725 83.7985 0.846725C90.0736 0.846725 92.814 6.76673 92.814 15.1667C92.814 23.6067 90.1531 29.4867 83.878 29.4867C77.6031 29.4867 74.7832 23.6067 74.7832 15.1667ZM78.1591 15.1667C78.3974 22.3667 79.7874 28.8867 84.3148 28.8867C88.9219 28.8867 89.6765 22.4067 89.4382 15.1667C89.1204 7.92673 87.9687 1.40673 83.2822 1.40673C78.5959 1.40673 77.8413 8.00673 78.1591 15.1667ZM97.2009 15.1667C97.2009 6.76673 99.9413 0.846725 106.216 0.846725C112.491 0.846725 115.232 6.76673 115.232 15.1667C115.232 23.6067 112.571 29.4867 106.296 29.4867C100.021 29.4867 97.2009 23.6067 97.2009 15.1667ZM100.577 15.1667C100.815 22.3667 102.205 28.8867 106.733 28.8867C111.34 28.8867 112.094 22.4067 111.856 15.1667C111.538 7.92673 110.387 1.40673 105.7 1.40673C101.014 1.40673 100.259 8.00673 100.577 15.1667ZM129.294 19.4867V10.9667H130.604L138.865 20.7667L146.411 10.9667H147.206V29.1667H144.028V15.0067L137.435 23.5267H137.038L129.85 15.0067V19.4867C129.85 23.6867 130.207 27.4067 130.406 29.1667H128.738C128.976 27.5267 129.294 23.6067 129.294 19.4867ZM151.484 15.1667V14.6067C157.084 10.4467 158.951 7.68673 158.951 5.00672C158.951 3.76673 158.236 1.80673 155.615 1.80673C153.47 1.80673 152.239 3.56673 152 4.88672L151.524 4.60672C152.12 2.44673 154.066 1.00673 156.846 1.00673C160.261 1.00673 161.81 2.80673 161.81 5.00672C161.81 6.36672 161.095 7.60672 159.785 8.80672C157.799 10.6467 155.098 12.4067 154.622 12.7667H162.247V15.1667H151.484Z" fill="black"/>
</g>
<path d="M1.0625 47.7031H7.60938V56H6.20312V48.8672H2.46875V56H1.0625V47.7031ZM10.4141 47.7031H16.9453V56H15.5469V48.8672H11.8203V53C11.8203 53.9635 11.7891 54.599 11.7266 54.9062C11.6641 55.2135 11.4922 55.4818 11.2109 55.7109C10.9297 55.9401 10.5234 56.0547 9.99219 56.0547C9.66406 56.0547 9.28646 56.0339 8.85938 55.9922V54.8203H9.47656C9.76823 54.8203 9.97656 54.7917 10.1016 54.7344C10.2266 54.6719 10.3099 54.5755 10.3516 54.4453C10.3932 54.3151 10.4141 53.8906 10.4141 53.1719V47.7031ZM18.7344 51.8516C18.7344 50.3151 19.1615 49.1771 20.0156 48.4375C20.7292 47.8229 21.599 47.5156 22.625 47.5156C23.7656 47.5156 24.6979 47.8906 25.4219 48.6406C26.1458 49.3854 26.5078 50.4167 26.5078 51.7344C26.5078 52.8021 26.3464 53.6432 26.0234 54.2578C25.7057 54.8672 25.2396 55.3411 24.625 55.6797C24.0156 56.0182 23.349 56.1875 22.625 56.1875C21.4635 56.1875 20.5234 55.8151 19.8047 55.0703C19.0911 54.3255 18.7344 53.2526 18.7344 51.8516ZM20.1797 51.8516C20.1797 52.9141 20.4115 53.7109 20.875 54.2422C21.3385 54.7682 21.9219 55.0312 22.625 55.0312C23.3229 55.0312 23.9036 54.7656 24.3672 54.2344C24.8307 53.7031 25.0625 52.8932 25.0625 51.8047C25.0625 50.7786 24.8281 50.0026 24.3594 49.4766C23.8958 48.9453 23.3177 48.6797 22.625 48.6797C21.9219 48.6797 21.3385 48.9427 20.875 49.4688C20.4115 49.9948 20.1797 50.7891 20.1797 51.8516ZM28.2109 47.7031H29.6172V54.8438H32.8203V47.7031H34.2266V54.8438H37.4375V47.7031H38.8359V54.8438H39.7656V58.3516H38.6016V56H28.2109V47.7031ZM46.75 54.9766C46.2292 55.4193 45.7266 55.7318 45.2422 55.9141C44.763 56.0964 44.2474 56.1875 43.6953 56.1875C42.7839 56.1875 42.0833 55.9661 41.5938 55.5234C41.1042 55.0755 40.8594 54.5052 40.8594 53.8125C40.8594 53.4062 40.9505 53.0365 41.1328 52.7031C41.3203 52.3646 41.5625 52.0938 41.8594 51.8906C42.1615 51.6875 42.5 51.5339 42.875 51.4297C43.151 51.3568 43.5677 51.2865 44.125 51.2188C45.2604 51.0833 46.0964 50.9219 46.6328 50.7344C46.638 50.5417 46.6406 50.4193 46.6406 50.3672C46.6406 49.7943 46.5078 49.3906 46.2422 49.1562C45.8828 48.8385 45.349 48.6797 44.6406 48.6797C43.9792 48.6797 43.4896 48.7969 43.1719 49.0312C42.8594 49.2604 42.6276 49.6693 42.4766 50.2578L41.1016 50.0703C41.2266 49.4818 41.4323 49.0078 41.7188 48.6484C42.0052 48.2839 42.4193 48.0052 42.9609 47.8125C43.5026 47.6146 44.1302 47.5156 44.8438 47.5156C45.5521 47.5156 46.1276 47.599 46.5703 47.7656C47.013 47.9323 47.3385 48.1432 47.5469 48.3984C47.7552 48.6484 47.901 48.9661 47.9844 49.3516C48.0312 49.5911 48.0547 50.0234 48.0547 50.6484V52.5234C48.0547 53.8307 48.0833 54.6589 48.1406 55.0078C48.2031 55.3516 48.3229 55.6823 48.5 56H47.0312C46.8854 55.7083 46.7917 55.3672 46.75 54.9766ZM46.6328 51.8359C46.1224 52.0443 45.3568 52.2214 44.3359 52.3672C43.7578 52.4505 43.349 52.5443 43.1094 52.6484C42.8698 52.7526 42.6849 52.9062 42.5547 53.1094C42.4245 53.3073 42.3594 53.5286 42.3594 53.7734C42.3594 54.1484 42.5 54.4609 42.7812 54.7109C43.0677 54.9609 43.4844 55.0859 44.0312 55.0859C44.5729 55.0859 45.0547 54.9688 45.4766 54.7344C45.8984 54.4948 46.2083 54.1693 46.4062 53.7578C46.5573 53.4401 46.6328 52.9714 46.6328 52.3516V51.8359ZM51.3516 47.7031H57.1328V54.8438H58.0312V58.3516H56.875V56H50.3438V58.3516H49.1875V54.8438H49.9297C50.9193 53.5 51.3932 51.1198 51.3516 47.7031ZM52.5234 48.8672C52.4193 51.5599 52.0026 53.5521 51.2734 54.8438H55.7344V48.8672H52.5234ZM59.5625 47.7031H60.9688V50.9453H62.75C63.9115 50.9453 64.8047 51.1719 65.4297 51.625C66.0599 52.0729 66.375 52.6927 66.375 53.4844C66.375 54.1771 66.112 54.7708 65.5859 55.2656C65.0651 55.7552 64.2292 56 63.0781 56H59.5625V47.7031ZM60.9688 54.8438H62.4453C63.3359 54.8438 63.9714 54.7344 64.3516 54.5156C64.7318 54.2969 64.9219 53.9557 64.9219 53.4922C64.9219 53.1328 64.7812 52.8125 64.5 52.5312C64.2188 52.25 63.5964 52.1094 62.6328 52.1094H60.9688V54.8438ZM73.6016 44.5469H80.5703V54.6484H81.6016V58.6719H80.25V56H72.6797V58.6719H71.3281V54.6484H72.2188C73.1406 53.2578 73.6016 50.4479 73.6016 46.2188V44.5469ZM79.0547 45.8984H75.0625V46.4844C75.0625 47.4583 74.974 48.7917 74.7969 50.4844C74.625 52.1719 74.2839 53.5599 73.7734 54.6484H79.0547V45.8984ZM84.2422 44.5469H91.4141V56H89.8984V45.8984H85.7578V51.7969C85.7578 52.9948 85.7005 53.8724 85.5859 54.4297C85.4766 54.987 85.2422 55.4219 84.8828 55.7344C84.5234 56.0417 84.0677 56.1953 83.5156 56.1953C83.1823 56.1953 82.7812 56.1328 82.3125 56.0078L82.5703 54.6641C82.8203 54.7682 83.0339 54.8203 83.2109 54.8203C83.5547 54.8203 83.8125 54.6927 83.9844 54.4375C84.1562 54.1771 84.2422 53.5677 84.2422 52.6094V44.5469ZM96.8203 56V45.8984H93.0469V44.5469H102.125V45.8984H98.3359V56H96.8203Z" fill="#282828"/>
<g clip-path="url(#clip1_173_8503)">
<path d="M204.26 19.2467C204.26 8.96673 212.079 2.56673 218.747 0.766724L218.946 1.12673C212.516 3.16673 208.427 9.08672 207.753 15.6467C208.785 14.0867 211.246 12.3267 214.54 12.3267C219.105 12.3267 222.479 15.4467 222.479 20.5267C222.479 26.0467 218.231 29.5667 213.905 29.5667C207.713 29.5667 204.26 24.8067 204.26 19.2467ZM207.634 16.8467C207.594 17.6467 207.594 18.4867 207.594 19.2467C207.753 24.9267 210.015 28.9667 213.826 28.9667C217.279 28.9667 219.105 25.8867 219.105 21.2867C219.105 17.2467 217.16 13.2467 213.191 13.2467C210.372 13.2467 208.269 15.3267 207.634 16.8467ZM226.436 15.1667C226.436 6.76673 229.175 0.846725 235.446 0.846725C241.718 0.846725 244.457 6.76673 244.457 15.1667C244.457 23.6067 241.797 29.4867 235.526 29.4867C229.254 29.4867 226.436 23.6067 226.436 15.1667ZM229.81 15.1667C230.048 22.3667 231.438 28.8867 235.962 28.8867C240.567 28.8867 241.321 22.4067 241.083 15.1667C240.765 7.92673 239.614 1.40673 234.93 1.40673C230.247 1.40673 229.493 8.00673 229.81 15.1667ZM248.841 15.1667C248.841 6.76673 251.579 0.846725 257.851 0.846725C264.122 0.846725 266.861 6.76673 266.861 15.1667C266.861 23.6067 264.202 29.4867 257.93 29.4867C251.659 29.4867 248.841 23.6067 248.841 15.1667ZM252.215 15.1667C252.453 22.3667 253.842 28.8867 258.367 28.8867C262.971 28.8867 263.725 22.4067 263.487 15.1667C263.17 7.92673 262.019 1.40673 257.335 1.40673C252.651 1.40673 251.897 8.00673 252.215 15.1667ZM271.801 15.0467V14.4867H280.454V5.72673H281.049V14.4867H289.821V15.0467H281.049V23.8867H280.454V15.0467H271.801Z" fill="black"/>
</g>
<path d="M211.133 44.2734L212.375 44.2891C212.318 44.8464 212.193 45.2344 212 45.4531C211.812 45.6719 211.568 45.8125 211.266 45.875C210.969 45.9375 210.383 45.9688 209.508 45.9688C208.346 45.9688 207.555 46.0807 207.133 46.3047C206.711 46.5286 206.406 46.888 206.219 47.3828C206.036 47.8724 205.935 48.5052 205.914 49.2812C206.268 48.7552 206.682 48.362 207.156 48.1016C207.63 47.8359 208.164 47.7031 208.758 47.7031C209.846 47.7031 210.747 48.0781 211.461 48.8281C212.174 49.5729 212.531 50.5833 212.531 51.8594C212.531 52.8281 212.352 53.6224 211.992 54.2422C211.633 54.862 211.206 55.3411 210.711 55.6797C210.221 56.0182 209.552 56.1875 208.703 56.1875C207.719 56.1875 206.953 55.9635 206.406 55.5156C205.859 55.0625 205.44 54.4844 205.148 53.7812C204.857 53.0781 204.711 51.8542 204.711 50.1094C204.711 47.9167 205.081 46.4401 205.82 45.6797C206.565 44.9193 207.708 44.5391 209.25 44.5391C210.208 44.5391 210.753 44.5234 210.883 44.4922C211.013 44.4609 211.096 44.388 211.133 44.2734ZM211.062 51.8203C211.062 50.9557 210.857 50.2474 210.445 49.6953C210.039 49.1432 209.464 48.8672 208.719 48.8672C207.943 48.8672 207.344 49.1589 206.922 49.7422C206.5 50.3255 206.289 51.1042 206.289 52.0781C206.289 53.0417 206.521 53.7786 206.984 54.2891C207.453 54.7995 208.029 55.0547 208.711 55.0547C209.409 55.0547 209.974 54.7604 210.406 54.1719C210.844 53.5781 211.062 52.7943 211.062 51.8203ZM214.227 59.1797V47.7031H215.508V48.7812C215.81 48.3594 216.151 48.0443 216.531 47.8359C216.911 47.6224 217.372 47.5156 217.914 47.5156C218.622 47.5156 219.247 47.6979 219.789 48.0625C220.331 48.4271 220.74 48.9427 221.016 49.6094C221.292 50.2708 221.43 50.9974 221.43 51.7891C221.43 52.638 221.276 53.4036 220.969 54.0859C220.667 54.763 220.224 55.2839 219.641 55.6484C219.062 56.0078 218.453 56.1875 217.812 56.1875C217.344 56.1875 216.922 56.0885 216.547 55.8906C216.177 55.6927 215.872 55.4427 215.633 55.1406V59.1797H214.227ZM215.5 51.8984C215.5 52.9661 215.716 53.7552 216.148 54.2656C216.581 54.776 217.104 55.0312 217.719 55.0312C218.344 55.0312 218.878 54.7682 219.32 54.2422C219.768 53.7109 219.992 52.8906 219.992 51.7812C219.992 50.724 219.773 49.9323 219.336 49.4062C218.904 48.8802 218.385 48.6172 217.781 48.6172C217.182 48.6172 216.651 48.8984 216.188 49.4609C215.729 50.0182 215.5 50.8307 215.5 51.8984ZM228.812 53.3281L230.266 53.5078C230.036 54.3568 229.612 55.0156 228.992 55.4844C228.372 55.9531 227.581 56.1875 226.617 56.1875C225.404 56.1875 224.44 55.8151 223.727 55.0703C223.018 54.3203 222.664 53.2708 222.664 51.9219C222.664 50.526 223.023 49.4427 223.742 48.6719C224.461 47.901 225.393 47.5156 226.539 47.5156C227.648 47.5156 228.555 47.8932 229.258 48.6484C229.961 49.4036 230.312 50.4661 230.312 51.8359C230.312 51.9193 230.31 52.0443 230.305 52.2109H224.117C224.169 53.1224 224.427 53.8203 224.891 54.3047C225.354 54.7891 225.932 55.0312 226.625 55.0312C227.141 55.0312 227.581 54.8958 227.945 54.625C228.31 54.3542 228.599 53.9219 228.812 53.3281ZM224.195 51.0547H228.828C228.766 50.3568 228.589 49.8333 228.297 49.4844C227.849 48.9427 227.268 48.6719 226.555 48.6719C225.909 48.6719 225.365 48.888 224.922 49.3203C224.484 49.7526 224.242 50.3307 224.195 51.0547ZM232.047 47.7031H233.453V51.1562H237.352V47.7031H238.758V56H237.352V52.3203H233.453V56H232.047V47.7031ZM241.992 47.7031H247.773V54.8438H248.672V58.3516H247.516V56H240.984V58.3516H239.828V54.8438H240.57C241.56 53.5 242.034 51.1198 241.992 47.7031ZM243.164 48.8672C243.06 51.5599 242.643 53.5521 241.914 54.8438H246.375V48.8672H243.164ZM249.703 51.8516C249.703 50.3151 250.13 49.1771 250.984 48.4375C251.698 47.8229 252.568 47.5156 253.594 47.5156C254.734 47.5156 255.667 47.8906 256.391 48.6406C257.115 49.3854 257.477 50.4167 257.477 51.7344C257.477 52.8021 257.315 53.6432 256.992 54.2578C256.674 54.8672 256.208 55.3411 255.594 55.6797C254.984 56.0182 254.318 56.1875 253.594 56.1875C252.432 56.1875 251.492 55.8151 250.773 55.0703C250.06 54.3255 249.703 53.2526 249.703 51.8516ZM251.148 51.8516C251.148 52.9141 251.38 53.7109 251.844 54.2422C252.307 54.7682 252.891 55.0312 253.594 55.0312C254.292 55.0312 254.872 54.7656 255.336 54.2344C255.799 53.7031 256.031 52.8932 256.031 51.8047C256.031 50.7786 255.797 50.0026 255.328 49.4766C254.865 48.9453 254.286 48.6797 253.594 48.6797C252.891 48.6797 252.307 48.9427 251.844 49.4688C251.38 49.9948 251.148 50.7891 251.148 51.8516ZM259.141 47.7031H262.383C263.18 47.7031 263.771 47.7708 264.156 47.9062C264.547 48.0365 264.88 48.2786 265.156 48.6328C265.438 48.987 265.578 49.4115 265.578 49.9062C265.578 50.3021 265.495 50.6484 265.328 50.9453C265.167 51.237 264.922 51.4818 264.594 51.6797C264.984 51.8099 265.307 52.0547 265.562 52.4141C265.823 52.7682 265.953 53.1901 265.953 53.6797C265.901 54.4661 265.62 55.0495 265.109 55.4297C264.599 55.8099 263.857 56 262.883 56H259.141V47.7031ZM260.547 51.1953H262.047C262.646 51.1953 263.057 51.1641 263.281 51.1016C263.505 51.0391 263.706 50.9141 263.883 50.7266C264.06 50.5339 264.148 50.3047 264.148 50.0391C264.148 49.6016 263.992 49.2969 263.68 49.125C263.372 48.9531 262.844 48.8672 262.094 48.8672H260.547V51.1953ZM260.547 54.8438H262.398C263.195 54.8438 263.742 54.7526 264.039 54.5703C264.336 54.3828 264.492 54.0625 264.508 53.6094C264.508 53.3438 264.422 53.099 264.25 52.875C264.078 52.6458 263.854 52.5026 263.578 52.4453C263.302 52.3828 262.859 52.3516 262.25 52.3516H260.547V54.8438Z" fill="#282828"/>
<g clip-path="url(#clip2_173_8503)">
<path d="M348.458 0.331476V0.888277L338.238 28.1715H334.752L346.913 3.51319H331.821V0.331476H348.458ZM352.037 14.2515C352.037 5.89948 354.77 0.0133057 361.029 0.0133057C367.287 0.0133057 370.02 5.89948 370.02 14.2515C370.02 22.6432 367.366 28.4896 361.108 28.4896C354.849 28.4896 352.037 22.6432 352.037 14.2515ZM355.404 14.2515C355.641 21.4103 357.028 27.8931 361.543 27.8931C366.138 27.8931 366.891 21.4501 366.653 14.2515C366.337 7.05285 365.188 0.570106 360.514 0.570106C355.839 0.570106 355.087 7.13239 355.404 14.2515ZM374.396 14.2515C374.396 5.89948 377.129 0.0133057 383.387 0.0133057C389.646 0.0133057 392.379 5.89948 392.379 14.2515C392.379 22.6432 389.725 28.4896 383.467 28.4896C377.208 28.4896 374.396 22.6432 374.396 14.2515ZM377.763 14.2515C378 21.4103 379.387 27.8931 383.902 27.8931C388.497 27.8931 389.25 21.4501 389.012 14.2515C388.695 7.05285 387.547 0.570106 382.872 0.570106C378.198 0.570106 377.446 7.13239 377.763 14.2515ZM397.309 14.1322V13.5754H405.944V4.86542H406.539V13.5754H415.293V14.1322H406.539V22.9216H405.944V14.1322H397.309Z" fill="black"/>
</g>
<path d="M337.469 52.9609L338.852 53.1406C338.701 54.0938 338.312 54.8411 337.688 55.3828C337.068 55.9193 336.305 56.1875 335.398 56.1875C334.263 56.1875 333.349 55.8177 332.656 55.0781C331.969 54.3333 331.625 53.2682 331.625 51.8828C331.625 50.987 331.773 50.2031 332.07 49.5312C332.367 48.8594 332.818 48.3568 333.422 48.0234C334.031 47.6849 334.693 47.5156 335.406 47.5156C336.307 47.5156 337.044 47.7448 337.617 48.2031C338.19 48.6562 338.557 49.3021 338.719 50.1406L337.352 50.3516C337.221 49.7943 336.99 49.375 336.656 49.0938C336.328 48.8125 335.93 48.6719 335.461 48.6719C334.753 48.6719 334.177 48.9271 333.734 49.4375C333.292 49.9427 333.07 50.7448 333.07 51.8438C333.07 52.9583 333.284 53.7682 333.711 54.2734C334.138 54.7786 334.695 55.0312 335.383 55.0312C335.935 55.0312 336.396 54.862 336.766 54.5234C337.135 54.1849 337.37 53.6641 337.469 52.9609ZM339.719 51.8516C339.719 50.3151 340.146 49.1771 341 48.4375C341.714 47.8229 342.583 47.5156 343.609 47.5156C344.75 47.5156 345.682 47.8906 346.406 48.6406C347.13 49.3854 347.492 50.4167 347.492 51.7344C347.492 52.8021 347.331 53.6432 347.008 54.2578C346.69 54.8672 346.224 55.3411 345.609 55.6797C345 56.0182 344.333 56.1875 343.609 56.1875C342.448 56.1875 341.508 55.8151 340.789 55.0703C340.076 54.3255 339.719 53.2526 339.719 51.8516ZM341.164 51.8516C341.164 52.9141 341.396 53.7109 341.859 54.2422C342.323 54.7682 342.906 55.0312 343.609 55.0312C344.307 55.0312 344.888 54.7656 345.352 54.2344C345.815 53.7031 346.047 52.8932 346.047 51.8047C346.047 50.7786 345.812 50.0026 345.344 49.4766C344.88 48.9453 344.302 48.6797 343.609 48.6797C342.906 48.6797 342.323 48.9427 341.859 49.4688C341.396 49.9948 341.164 50.7891 341.164 51.8516ZM348.031 47.7031H354.773V48.8672H352.102V56H350.703V48.8672H348.031V47.7031ZM356.117 59.1797V47.7031H357.398V48.7812C357.701 48.3594 358.042 48.0443 358.422 47.8359C358.802 47.6224 359.263 47.5156 359.805 47.5156C360.513 47.5156 361.138 47.6979 361.68 48.0625C362.221 48.4271 362.63 48.9427 362.906 49.6094C363.182 50.2708 363.32 50.9974 363.32 51.7891C363.32 52.638 363.167 53.4036 362.859 54.0859C362.557 54.763 362.115 55.2839 361.531 55.6484C360.953 56.0078 360.344 56.1875 359.703 56.1875C359.234 56.1875 358.812 56.0885 358.438 55.8906C358.068 55.6927 357.763 55.4427 357.523 55.1406V59.1797H356.117ZM357.391 51.8984C357.391 52.9661 357.607 53.7552 358.039 54.2656C358.471 54.776 358.995 55.0312 359.609 55.0312C360.234 55.0312 360.768 54.7682 361.211 54.2422C361.659 53.7109 361.883 52.8906 361.883 51.7812C361.883 50.724 361.664 49.9323 361.227 49.4062C360.794 48.8802 360.276 48.6172 359.672 48.6172C359.073 48.6172 358.542 48.8984 358.078 49.4609C357.62 50.0182 357.391 50.8307 357.391 51.8984ZM364.773 59.1953L364.617 57.875C364.924 57.9583 365.193 58 365.422 58C365.734 58 365.984 57.9479 366.172 57.8438C366.359 57.7396 366.513 57.5938 366.633 57.4062C366.721 57.2656 366.865 56.9167 367.062 56.3594C367.089 56.2812 367.13 56.1667 367.188 56.0156L364.039 47.7031H365.555L367.281 52.5078C367.505 53.1172 367.706 53.7578 367.883 54.4297C368.044 53.7839 368.237 53.1536 368.461 52.5391L370.234 47.7031H371.641L368.484 56.1406C368.146 57.0521 367.883 57.6797 367.695 58.0234C367.445 58.487 367.159 58.8255 366.836 59.0391C366.513 59.2578 366.128 59.3672 365.68 59.3672C365.409 59.3672 365.107 59.3099 364.773 59.1953ZM373.414 47.7031H379.195V54.8438H380.094V58.3516H378.938V56H372.406V58.3516H371.25V54.8438H371.992C372.982 53.5 373.456 51.1198 373.414 47.7031ZM374.586 48.8672C374.482 51.5599 374.065 53.5521 373.336 54.8438H377.797V48.8672H374.586ZM381.656 47.7031H383.062V51.1562H386.961V47.7031H388.367V56H386.961V52.3203H383.062V56H381.656V47.7031ZM390.492 47.7031H391.898V54.0312L395.797 47.7031H397.312V56H395.906V49.7109L392.008 56H390.492V47.7031ZM399.422 47.7031H400.828V51.2891C401.276 51.2891 401.589 51.2031 401.766 51.0312C401.948 50.8594 402.214 50.3594 402.562 49.5312C402.839 48.875 403.062 48.4427 403.234 48.2344C403.406 48.026 403.604 47.8854 403.828 47.8125C404.052 47.7396 404.411 47.7031 404.906 47.7031H405.188V48.8672L404.797 48.8594C404.427 48.8594 404.19 48.9141 404.086 49.0234C403.977 49.138 403.81 49.4792 403.586 50.0469C403.372 50.5885 403.177 50.9635 403 51.1719C402.823 51.3802 402.549 51.5703 402.18 51.7422C402.784 51.9036 403.378 52.4661 403.961 53.4297L405.5 56H403.953L402.453 53.4297C402.146 52.9141 401.878 52.5755 401.648 52.4141C401.419 52.2474 401.146 52.1641 400.828 52.1641V56H399.422V47.7031ZM406.094 51.8516C406.094 50.3151 406.521 49.1771 407.375 48.4375C408.089 47.8229 408.958 47.5156 409.984 47.5156C411.125 47.5156 412.057 47.8906 412.781 48.6406C413.505 49.3854 413.867 50.4167 413.867 51.7344C413.867 52.8021 413.706 53.6432 413.383 54.2578C413.065 54.8672 412.599 55.3411 411.984 55.6797C411.375 56.0182 410.708 56.1875 409.984 56.1875C408.823 56.1875 407.883 55.8151 407.164 55.0703C406.451 54.3255 406.094 53.2526 406.094 51.8516ZM407.539 51.8516C407.539 52.9141 407.771 53.7109 408.234 54.2422C408.698 54.7682 409.281 55.0312 409.984 55.0312C410.682 55.0312 411.263 54.7656 411.727 54.2344C412.19 53.7031 412.422 52.8932 412.422 51.8047C412.422 50.7786 412.188 50.0026 411.719 49.4766C411.255 48.9453 410.677 48.6797 409.984 48.6797C409.281 48.6797 408.698 48.9427 408.234 49.4688C407.771 49.9948 407.539 50.7891 407.539 51.8516ZM415.531 47.7031H418.773C419.57 47.7031 420.161 47.7708 420.547 47.9062C420.938 48.0365 421.271 48.2786 421.547 48.6328C421.828 48.987 421.969 49.4115 421.969 49.9062C421.969 50.3021 421.885 50.6484 421.719 50.9453C421.557 51.237 421.312 51.4818 420.984 51.6797C421.375 51.8099 421.698 52.0547 421.953 52.4141C422.214 52.7682 422.344 53.1901 422.344 53.6797C422.292 54.4661 422.01 55.0495 421.5 55.4297C420.99 55.8099 420.247 56 419.273 56H415.531V47.7031ZM416.938 51.1953H418.438C419.036 51.1953 419.448 51.1641 419.672 51.1016C419.896 51.0391 420.096 50.9141 420.273 50.7266C420.451 50.5339 420.539 50.3047 420.539 50.0391C420.539 49.6016 420.383 49.2969 420.07 49.125C419.763 48.9531 419.234 48.8672 418.484 48.8672H416.938V51.1953ZM416.938 54.8438H418.789C419.586 54.8438 420.133 54.7526 420.43 54.5703C420.727 54.3828 420.883 54.0625 420.898 53.6094C420.898 53.3438 420.812 53.099 420.641 52.875C420.469 52.6458 420.245 52.5026 419.969 52.4453C419.693 52.3828 419.25 52.3516 418.641 52.3516H416.938V54.8438Z" fill="#282828"/>
<g clip-path="url(#clip3_173_8503)">
<path d="M471.806 0.606689H472.675V29.1667H469.515V4.16669C469.001 4.80669 466.078 7.16669 464.933 8.12669L464.656 7.68669C466.394 6.32669 471.055 1.68669 471.806 0.606689ZM479.584 15.1667C479.584 6.76669 482.309 0.846691 488.55 0.846691C494.791 0.846691 497.517 6.76669 497.517 15.1667C497.517 23.6067 494.87 29.4867 488.629 29.4867C482.388 29.4867 479.584 23.6067 479.584 15.1667ZM482.941 15.1667C483.178 22.3667 484.561 28.8867 489.064 28.8867C493.646 28.8867 494.396 22.4067 494.159 15.1667C493.843 7.92669 492.698 1.40669 488.037 1.40669C483.376 1.40669 482.625 8.00669 482.941 15.1667ZM501.879 15.1667C501.879 6.76669 504.605 0.846691 510.846 0.846691C517.087 0.846691 519.812 6.76669 519.812 15.1667C519.812 23.6067 517.166 29.4867 510.925 29.4867C504.684 29.4867 501.879 23.6067 501.879 15.1667ZM505.237 15.1667C505.474 22.3667 506.856 28.8867 511.359 28.8867C515.941 28.8867 516.692 22.4067 516.455 15.1667C516.139 7.92669 514.993 1.40669 510.332 1.40669C505.671 1.40669 504.921 8.00669 505.237 15.1667ZM524.728 15.0467V14.4867H533.339V5.72669H533.932V14.4867H542.661V15.0467H533.932V23.8867H533.339V15.0467H524.728Z" fill="black"/>
</g>
<path d="M465.742 47.7031H472.273V56H470.875V48.8672H467.148V53C467.148 53.9635 467.117 54.599 467.055 54.9062C466.992 55.2135 466.82 55.4818 466.539 55.7109C466.258 55.9401 465.852 56.0547 465.32 56.0547C464.992 56.0547 464.615 56.0339 464.188 55.9922V54.8203H464.805C465.096 54.8203 465.305 54.7917 465.43 54.7344C465.555 54.6719 465.638 54.5755 465.68 54.4453C465.721 54.3151 465.742 53.8906 465.742 53.1719V47.7031ZM480.078 53.3281L481.531 53.5078C481.302 54.3568 480.878 55.0156 480.258 55.4844C479.638 55.9531 478.846 56.1875 477.883 56.1875C476.669 56.1875 475.706 55.8151 474.992 55.0703C474.284 54.3203 473.93 53.2708 473.93 51.9219C473.93 50.526 474.289 49.4427 475.008 48.6719C475.727 47.901 476.659 47.5156 477.805 47.5156C478.914 47.5156 479.82 47.8932 480.523 48.6484C481.227 49.4036 481.578 50.4661 481.578 51.8359C481.578 51.9193 481.576 52.0443 481.57 52.2109H475.383C475.435 53.1224 475.693 53.8203 476.156 54.3047C476.62 54.7891 477.198 55.0312 477.891 55.0312C478.406 55.0312 478.846 54.8958 479.211 54.625C479.576 54.3542 479.865 53.9219 480.078 53.3281ZM475.461 51.0547H480.094C480.031 50.3568 479.854 49.8333 479.562 49.4844C479.115 48.9427 478.534 48.6719 477.82 48.6719C477.174 48.6719 476.63 48.888 476.188 49.3203C475.75 49.7526 475.508 50.3307 475.461 51.0547ZM482.016 47.7031H488.758V48.8672H486.086V56H484.688V48.8672H482.016V47.7031ZM494.555 47.7031H495.961V54.0312L499.859 47.7031H501.375V56H499.969V49.7109L496.07 56H494.555V47.7031ZM508.906 52.9609L510.289 53.1406C510.138 54.0938 509.75 54.8411 509.125 55.3828C508.505 55.9193 507.742 56.1875 506.836 56.1875C505.701 56.1875 504.786 55.8177 504.094 55.0781C503.406 54.3333 503.062 53.2682 503.062 51.8828C503.062 50.987 503.211 50.2031 503.508 49.5312C503.805 48.8594 504.255 48.3568 504.859 48.0234C505.469 47.6849 506.13 47.5156 506.844 47.5156C507.745 47.5156 508.482 47.7448 509.055 48.2031C509.628 48.6562 509.995 49.3021 510.156 50.1406L508.789 50.3516C508.659 49.7943 508.427 49.375 508.094 49.0938C507.766 48.8125 507.367 48.6719 506.898 48.6719C506.19 48.6719 505.615 48.9271 505.172 49.4375C504.729 49.9427 504.508 50.7448 504.508 51.8438C504.508 52.9583 504.721 53.7682 505.148 54.2734C505.576 54.7786 506.133 55.0312 506.82 55.0312C507.372 55.0312 507.833 54.862 508.203 54.5234C508.573 54.1849 508.807 53.6641 508.906 52.9609ZM510.734 47.7031H517.477V48.8672H514.805V56H513.406V48.8672H510.734V47.7031ZM518.109 51.8516C518.109 50.3151 518.536 49.1771 519.391 48.4375C520.104 47.8229 520.974 47.5156 522 47.5156C523.141 47.5156 524.073 47.8906 524.797 48.6406C525.521 49.3854 525.883 50.4167 525.883 51.7344C525.883 52.8021 525.721 53.6432 525.398 54.2578C525.081 54.8672 524.615 55.3411 524 55.6797C523.391 56.0182 522.724 56.1875 522 56.1875C520.839 56.1875 519.898 55.8151 519.18 55.0703C518.466 54.3255 518.109 53.2526 518.109 51.8516ZM519.555 51.8516C519.555 52.9141 519.786 53.7109 520.25 54.2422C520.714 54.7682 521.297 55.0312 522 55.0312C522.698 55.0312 523.279 54.7656 523.742 54.2344C524.206 53.7031 524.438 52.8932 524.438 51.8047C524.438 50.7786 524.203 50.0026 523.734 49.4766C523.271 48.9453 522.693 48.6797 522 48.6797C521.297 48.6797 520.714 48.9427 520.25 49.4688C519.786 49.9948 519.555 50.7891 519.555 51.8516ZM527.539 59.1797V47.7031H528.82V48.7812C529.122 48.3594 529.464 48.0443 529.844 47.8359C530.224 47.6224 530.685 47.5156 531.227 47.5156C531.935 47.5156 532.56 47.6979 533.102 48.0625C533.643 48.4271 534.052 48.9427 534.328 49.6094C534.604 50.2708 534.742 50.9974 534.742 51.7891C534.742 52.638 534.589 53.4036 534.281 54.0859C533.979 54.763 533.536 55.2839 532.953 55.6484C532.375 56.0078 531.766 56.1875 531.125 56.1875C530.656 56.1875 530.234 56.0885 529.859 55.8906C529.49 55.6927 529.185 55.4427 528.945 55.1406V59.1797H527.539ZM528.812 51.8984C528.812 52.9661 529.029 53.7552 529.461 54.2656C529.893 54.776 530.417 55.0312 531.031 55.0312C531.656 55.0312 532.19 54.7682 532.633 54.2422C533.081 53.7109 533.305 52.8906 533.305 51.7812C533.305 50.724 533.086 49.9323 532.648 49.4062C532.216 48.8802 531.698 48.6172 531.094 48.6172C530.495 48.6172 529.964 48.8984 529.5 49.4609C529.042 50.0182 528.812 50.8307 528.812 51.8984ZM536.445 47.7031H537.852V54.0312L541.75 47.7031H543.266V56H541.859V49.7109L537.961 56H536.445V47.7031ZM545.383 47.7031H546.789V54.0312L550.688 47.7031H552.203V56H550.797V49.7109L546.898 56H545.383V47.7031Z" fill="#282828"/>
<defs>
<clipPath id="clip0_173_8503">
<rect width="163" height="30" fill="white"/>
</clipPath>
<clipPath id="clip1_173_8503">
<rect width="86" height="30" fill="white" transform="translate(204)"/>
</clipPath>
<clipPath id="clip2_173_8503">
<rect width="85" height="29" fill="white" transform="translate(331)"/>
</clipPath>
<clipPath id="clip3_173_8503">
<rect width="79" height="30" fill="white" transform="translate(464)"/>
</clipPath>
</defs>
</svg>
